<?xml version="1.0" encoding="UTF-8" standalone="no"?>
<svg
   width="33"
   height="32"
   viewBox="0 0 33 32"
   fill="none"
   version="1.1"
   id="svg12"
   sodipodi:docname="logo.svg"
   inkscape:version="1.3.2 (091e20e, 2023-11-25, custom)"
   xmlns:inkscape="http://www.inkscape.org/namespaces/inkscape"
   xmlns:sodipodi="http://sodipodi.sourceforge.net/DTD/sodipodi-0.dtd"
   xmlns="http://www.w3.org/2000/svg"
   xmlns:svg="http://www.w3.org/2000/svg">
  <defs
     id="defs12" />
  <sodipodi:namedview
     id="namedview12"
     pagecolor="#ffffff"
     bordercolor="#000000"
     borderopacity="0.25"
     inkscape:showpageshadow="2"
     inkscape:pageopacity="0.0"
     inkscape:pagecheckerboard="0"
     inkscape:deskcolor="#d1d1d1"
     inkscape:zoom="12.828125"
     inkscape:cx="4.4823386"
     inkscape:cy="8.3800244"
     inkscape:window-width="1920"
     inkscape:window-height="1017"
     inkscape:window-x="1912"
     inkscape:window-y="-8"
     inkscape:window-maximized="1"
     inkscape:current-layer="svg12" />
  <path
     d="M12.2721 11.4336C12.2201 11.6343 12.1293 11.8228 12.0049 11.9883C11.7733 12.2902 11.4669 12.5256 11.1162 12.6711C10.8007 12.8076 10.4667 12.8958 10.1253 12.9329C10.0512 12.9423 9.97433 12.9479 9.90027 12.9536C9.684 12.9618 9.47603 13.0394 9.30683 13.175C9.13763 13.3106 9.01608 13.497 8.95998 13.707C8.93429 13.8115 8.91519 13.9175 8.90279 14.0244C8.86905 14.3012 8.86342 14.5894 8.83342 14.9378C8.75997 15.5308 8.58922 16.1074 8.32812 16.6443C7.98876 17.3619 7.60815 17.9401 7.69627 18.767C7.75439 19.3038 8.02813 19.6635 8.39187 20.0346C9.0481 20.7089 10.5171 21.0102 10.189 22.6715C9.9912 23.6631 8.35437 24.7038 6.05382 25.0673C6.28256 25.0324 5.76039 24.1481 5.72757 24.0916C5.48102 23.7036 5.21103 23.3382 5.0151 22.9173C4.63073 22.1008 4.45261 21.1562 4.61011 20.2615C4.77604 19.3198 5.46977 18.5984 6.04632 17.8789C6.73255 17.0229 7.45252 15.9013 7.61189 14.79C7.64939 14.5207 7.67564 14.1835 7.73564 13.8482C7.79284 13.4768 7.90867 13.1169 8.07875 12.7822C8.19485 12.5626 8.3477 12.3648 8.53062 12.1974C8.62598 12.1085 8.6889 11.99 8.7093 11.8609C8.72969 11.7318 8.70639 11.5996 8.64311 11.4854L4.97572 4.85926L10.2434 11.3893C10.3034 11.465 10.3792 11.5265 10.4655 11.5694C10.5518 11.6123 10.6464 11.6357 10.7427 11.6377C10.839 11.6398 10.9345 11.6206 11.0225 11.5814C11.1106 11.5422 11.189 11.484 11.2521 11.411C11.3188 11.3328 11.3567 11.2339 11.3592 11.131C11.3618 11.0281 11.3289 10.9274 11.2662 10.846C10.9221 10.4043 10.5584 9.95412 10.2059 9.5115L8.8803 7.86344L6.21975 4.57297L2.5918 0L6.56099 4.27821L9.39309 7.42364L10.8059 9.00013C11.2746 9.53034 11.7433 10.0436 12.2121 10.6011L12.2889 10.6953L12.3058 10.8412C12.3287 11.0392 12.3173 11.2396 12.2721 11.4336Z"
     fill="black"
     id="path11" />
  <circle
     style="fill:#000000"
     id="path13"
     cx="15.278928"
     cy="16.604141"
     r="13.485992" />
  <circle
     style="fill:#ffffff"
     id="path14"
     cx="17.539587"
     cy="19.09866"
     r="5.4567599" />
  <circle
     style="fill:#ffffff;stroke-width:0.328571"
     id="path14-9"
     cx="11.699147"
     cy="10.570038"
     r="1.7929354" />
</svg>
