<?xml version="1.0" encoding="UTF-8" standalone="no"?>
<svg
   width="99"
   height="16"
   viewBox="0 0 99 16"
   fill="none"
   version="1.1"
   id="svg3"
   sodipodi:docname="wordmark_white.svg"
   inkscape:version="1.3.2 (091e20e, 2023-11-25, custom)"
   xmlns:inkscape="http://www.inkscape.org/namespaces/inkscape"
   xmlns:sodipodi="http://sodipodi.sourceforge.net/DTD/sodipodi-0.dtd"
   xmlns="http://www.w3.org/2000/svg"
   xmlns:svg="http://www.w3.org/2000/svg">
  <defs
     id="defs3" />
  <sodipodi:namedview
     id="namedview3"
     pagecolor="#ffffff"
     bordercolor="#000000"
     borderopacity="0.25"
     inkscape:showpageshadow="2"
     inkscape:pageopacity="0.0"
     inkscape:pagecheckerboard="0"
     inkscape:deskcolor="#d1d1d1"
     showgrid="false"
     inkscape:zoom="10.020917"
     inkscape:cx="54.935092"
     inkscape:cy="5.8377891"
     inkscape:window-width="1920"
     inkscape:window-height="1017"
     inkscape:window-x="3832"
     inkscape:window-y="-8"
     inkscape:window-maximized="1"
     inkscape:current-layer="svg3" />
  <mask
     id="path-1-outside-1"
     maskUnits="userSpaceOnUse"
     x="-0.494141"
     y="-0.0371094"
     width="99"
     height="16"
     fill="black">
    <rect
       fill="white"
       x="-0.494141"
       y="-0.0371094"
       width="99"
       height="16"
       id="rect1" />
    <path
       fill-rule="evenodd"
       clip-rule="evenodd"
       d="M46.1805 1.05353C43.9058 1.62668 42.8396 3.41031 43.4861 5.56069C43.7631 6.48211 44.6152 7.41166 45.8201 8.10683C47.9916 9.3596 48.631 9.86695 49.0024 10.6313C49.3122 11.269 49.3391 11.4822 49.1828 12.0602C48.8162 13.417 47.8588 14.1653 46.4891 14.1653C45.0911 14.1653 44.1094 13.3811 43.8903 12.0893C43.8024 11.5699 43.6939 11.404 43.443 11.404C43.1432 11.404 43.1118 11.5414 43.1118 12.8572V14.3101L44.0211 14.619C45.441 15.1012 47.4606 15.0436 48.6657 14.4865C51.0133 13.4011 51.9131 11.2467 50.8594 9.23374C50.4654 8.48077 49.4764 7.64033 47.782 6.61829C46.0013 5.54397 45.2077 4.76252 45.0913 3.9683C44.9125 2.74779 46.0103 1.73766 47.5107 1.74198C48.6858 1.74526 49.1901 2.02347 49.6067 2.89811C49.8675 3.44572 50.0542 3.62673 50.363 3.63156C50.7045 3.63674 50.7555 3.57306 50.6683 3.24947C50.611 3.03599 50.5629 2.50065 50.5617 2.05987C50.5599 1.50019 50.479 1.22784 50.2932 1.15691C49.7871 0.963274 46.8329 0.889064 46.1805 1.05353ZM0.505859 1.5668C0.505859 1.81515 0.621381 1.91196 0.917717 1.91196C1.7539 1.91196 1.79876 2.15325 1.89142 7.15848C1.9723 11.5312 2.00226 11.8804 2.35177 12.5258C2.85248 13.4503 3.53158 14.0655 4.57594 14.541C5.29141 14.8667 5.7431 14.9357 7.17387 14.9387C8.72604 14.9416 9.00887 14.8915 9.89823 14.4563C10.444 14.1893 11.1238 13.6888 11.4088 13.3441C12.3973 12.1494 12.5019 11.5719 12.6139 6.69459C12.7218 1.99793 12.7365 1.92162 13.5388 1.91454C13.7255 1.91299 13.8419 1.77942 13.8419 1.5668C13.8419 1.24079 13.7264 1.22164 11.7635 1.22164C9.82341 1.22164 9.6852 1.24389 9.6852 1.55592C9.6852 1.80616 9.82548 1.90368 10.2441 1.94423C11.1639 2.03311 11.2386 2.3866 11.2414 6.66975C11.2443 11.0121 11.096 11.8475 10.1662 12.7268C9.30157 13.5447 8.61347 13.8202 7.43539 13.8202C5.74328 13.8202 4.54407 13.0325 4.15092 11.6629C4.0186 11.2023 3.96993 9.50835 4.00457 6.57168L4.05636 2.17083L4.66254 1.976C4.99594 1.86882 5.29384 1.65533 5.32466 1.50138C5.3742 1.25407 5.0983 1.22164 2.94323 1.22164C0.62138 1.22164 0.505859 1.23803 0.505859 1.5668ZM16.613 1.5668C16.613 1.83396 16.7285 1.91196 17.1244 1.91196C18.0064 1.91196 18.5031 2.25093 18.7024 2.98872C18.8159 3.40827 18.8647 5.41193 18.8315 8.27559C18.772 13.3887 18.7019 13.7232 17.6444 13.9339C17.2957 14.0034 17.1326 14.1391 17.1326 14.3595C17.1326 14.6605 17.302 14.683 19.5573 14.683C21.773 14.683 21.982 14.6565 21.982 14.3736C21.982 14.1534 21.7602 14.0052 21.2117 13.859C20.5305 13.6774 20.4203 13.5783 20.26 13.0035C20.0544 12.2657 20.0057 4.49278 20.2068 4.51521C20.2781 4.52315 20.95 5.24158 21.6997 6.11157C22.4493 6.98156 24.5003 9.26602 26.2574 11.1882C29.0075 14.1967 29.5219 14.683 29.954 14.683H30.456L30.5057 8.56486C30.5408 4.22079 30.6134 2.38882 30.7556 2.24713C30.8659 2.13737 31.2166 1.99447 31.535 1.92958C31.8729 1.86072 32.114 1.70659 32.114 1.55972C32.114 1.35366 31.6822 1.29929 29.7325 1.25994C27.4396 1.21369 27.3511 1.2249 27.3511 1.56196C27.3511 1.81807 27.4645 1.91196 27.7744 1.91196C28.0073 1.91196 28.4164 2.09922 28.6837 2.32824L29.1696 2.74451L29.2242 6.90166C29.2552 9.24878 29.2119 11.0589 29.1251 11.0589C29.0406 11.0589 28.5118 10.5347 27.95 9.89388C27.3883 9.25308 25.7887 7.48638 24.3953 5.96765C23.002 4.44893 21.4798 2.76607 21.0128 2.22813L20.1635 1.24994L18.3882 1.23579C16.7237 1.2225 16.613 1.24321 16.613 1.5668ZM34.7985 1.5668C34.7985 1.82999 34.914 1.91196 35.285 1.91196C35.5526 1.91196 35.9227 2.02206 36.1077 2.15668C36.4249 2.38777 36.4469 2.68567 36.498 7.46361C36.562 13.4298 36.5095 13.7642 35.4847 13.9275C34.9686 14.0098 34.7985 14.117 34.7985 14.36C34.7985 14.6613 34.9731 14.683 37.3964 14.683C39.8788 14.683 39.9943 14.6677 39.9943 14.3379C39.9943 14.0923 39.8788 13.9927 39.5944 13.9927C39.3745 13.9927 39.0433 13.8826 38.8583 13.748C38.5398 13.5161 38.5196 13.2177 38.4719 8.05971C38.4231 2.77593 38.4319 2.60593 38.775 2.26405C38.9694 2.07041 39.3232 1.91196 39.5613 1.91196C39.8788 1.91196 39.9943 1.81998 39.9943 1.5668C39.9943 1.237 39.8788 1.22164 37.3964 1.22164C34.914 1.22164 34.7985 1.237 34.7985 1.5668ZM52.9337 1.5668C52.9898 1.78063 53.17 1.91196 53.4069 1.91196C53.6173 1.91196 53.9599 2.09266 54.1683 2.31374C54.3799 2.5381 55.564 5.37518 56.8516 8.74243L59.1563 14.7693L59.7606 14.821L60.3648 14.8726L61.9839 10.5927C62.8744 8.23885 63.6964 6.12659 63.8107 5.89878C64.0066 5.50874 64.0503 5.56814 64.5707 6.9343C64.8743 7.73163 65.6828 9.84007 66.3671 11.6197L67.6111 14.8556H68.1593C68.461 14.8556 68.7473 14.7525 68.796 14.6263C68.8445 14.5003 69.6403 12.4616 70.5643 10.096C71.4885 7.73056 72.512 5.10991 72.839 4.27254C73.5838 2.36568 73.7329 2.13028 74.3266 1.92404C74.5906 1.8324 74.8065 1.63688 74.8065 1.4895C74.8065 1.26238 74.4911 1.22164 72.7282 1.22164C70.7654 1.22164 70.6498 1.24079 70.6498 1.5668C70.6498 1.81687 70.7654 1.91196 71.0686 1.91196C71.7418 1.91196 72.0354 2.09421 72.0354 2.51238C72.0354 2.86134 68.7366 11.8149 68.5332 12.0173C68.4084 12.1418 65.4296 3.82454 65.3219 3.05068C65.2172 2.29891 65.5383 1.91196 66.2665 1.91196C66.5508 1.91196 66.6664 1.81238 66.6664 1.5668C66.6664 1.23648 66.5508 1.22164 63.9818 1.22164C61.4128 1.22164 61.2973 1.23648 61.2973 1.5668C61.2973 1.76354 61.4128 1.91196 61.5658 1.91196C62.1065 1.91196 62.8232 2.43247 63.0074 2.95919C63.2719 3.71493 63.0696 4.48117 61.5124 8.62487L60.1896 12.1451L59.9047 11.4725C59.7479 11.1026 58.9323 8.92018 58.0925 6.62276C56.4423 2.10939 56.4179 1.91196 57.5082 1.91196C57.8911 1.91196 58.0066 1.83206 58.0066 1.5668C58.0066 1.237 57.8911 1.22164 55.425 1.22164C52.9285 1.22164 52.8463 1.23303 52.9337 1.5668ZM88.0085 1.68594C88.0085 1.68594 88.0083 1.92155 88.0373 1.98711C88.0663 2.05266 88.2526 2.07729 88.2526 2.07729C88.3682 2.10831 88.4782 2.13555 88.5821 2.16127C89.1055 2.29089 89.4732 2.38194 89.6201 2.72558C89.7194 2.95772 89.7256 3.7649 89.7268 8.09212C89.7281 12.655 89.7272 13.2142 89.6051 13.5157C89.4537 13.8896 89.1639 14.0881 88.4953 14.2759C88.4953 14.2759 88.1995 14.3582 88.1199 14.4318C88.0403 14.5053 88.0253 14.6697 88.0253 14.6697C88.0253 14.6697 88.019 14.8223 88.0872 14.8955C88.1554 14.9687 88.3373 14.9338 88.3373 14.9338L90.0705 14.9384L92.9452 14.9616C92.9452 14.9616 93.0627 14.9772 93.1236 14.8994C93.1845 14.8217 93.169 14.6693 93.169 14.6693C93.169 14.6693 93.169 14.5063 93.0932 14.4329C93.0175 14.3595 92.7238 14.2906 92.7238 14.2906C92.0746 14.1308 91.7415 13.9226 91.5942 13.5845C91.4847 13.3333 91.473 12.6549 91.4565 11.2421V9.17076C91.5291 9.21169 91.5954 9.2581 91.6655 9.30713C91.9968 9.53899 92.4118 9.82933 93.9618 9.87419C95.8397 9.92854 96.9693 9.09296 97.6412 8.12247C98.313 7.15197 98.5736 5.62726 98.0807 4.00303C97.5878 2.37879 96.1415 1.39587 94.1082 1.29426C93.0483 1.2413 91.5063 1.2936 90.6445 1.3327L90.4031 1.34353C89.6201 1.37769 88.6818 1.45255 88.2143 1.49702L88.2129 1.49715C88.0857 1.50925 88.0731 1.51045 88.0375 1.55563C88.0018 1.60097 88.0085 1.68594 88.0085 1.68594ZM95.6397 8.04849C96.3951 7.33839 96.4076 6.2276 96.4076 5.51799C96.3335 4.40532 95.8851 2.26549 93.3455 2.26549C92.7518 2.23499 91.5369 2.33746 91.5033 3.16111C91.4665 3.3066 91.4501 4.32437 91.4595 5.88635L91.4745 8.37934L91.733 8.51549L91.7469 8.52286C91.8872 8.59691 92.0692 8.69303 92.3874 8.75533C93.397 8.95305 94.8843 8.7586 95.6397 8.04849ZM79.7498 1.43933C79.9379 1.36806 80.0619 1.32045 80.0619 1.32045C80.0619 1.32045 80.343 1.20491 80.4338 1.32045C80.4618 1.35604 80.5637 1.61912 80.8164 2.27119C80.8659 2.39911 80.9213 2.542 80.9831 2.70108C81.3596 3.67107 81.9005 5.06338 82.1852 5.79513C82.4698 6.52687 83.0327 7.97488 83.4362 9.01294C83.8396 10.051 84.3575 11.3827 84.5869 11.9722C84.8165 12.5618 85.1097 13.1748 85.1917 13.2866C85.232 13.3415 85.2732 13.4098 85.3183 13.4846C85.4955 13.7782 85.7332 14.1722 86.2107 14.2493C86.2107 14.2493 86.5845 14.3111 86.6399 14.3697C86.6952 14.4283 86.7078 14.5348 86.7078 14.5348V14.7348C86.7078 14.7348 86.7014 14.7859 86.6707 14.8294C86.6399 14.8728 86.5269 14.8607 86.5269 14.8607L83.6446 14.8609L81.5941 14.8757C81.5941 14.8757 81.5225 14.8844 81.4803 14.8495C81.438 14.8146 81.4161 14.7263 81.4161 14.7263V14.5756C81.4161 14.5756 81.3984 14.4624 81.4803 14.3638C81.5622 14.2653 81.8915 14.2539 81.8915 14.2539C82.5122 14.2 82.7586 13.6712 82.8854 13.399C82.8949 13.3787 82.9037 13.3598 82.9119 13.3426C83.0471 13.0612 82.9983 12.8779 82.3876 11.3736C81.9846 10.3808 81.8473 10.102 81.7493 10.0772C81.6806 10.0598 80.6079 10.0534 79.3654 10.0629L77.1066 10.0801L76.9715 10.4514C76.5809 11.5253 76.234 12.5922 76.1817 12.8807C76.0752 13.4676 76.2237 14.1203 77.0868 14.2338C77.0868 14.2338 77.4068 14.2779 77.4922 14.3423C77.5775 14.4067 77.6075 14.5717 77.6075 14.5717V14.7238C77.6075 14.7238 77.5912 14.7962 77.5324 14.8449C77.4737 14.8937 77.3212 14.8759 77.3212 14.8759H75.1653L73.0795 14.8996C73.0795 14.8996 72.9904 14.8976 72.9246 14.8627C72.8588 14.8278 72.8483 14.7577 72.8483 14.7577V14.6132C72.8483 14.6132 72.837 14.5194 72.9531 14.4047C73.0693 14.2899 73.3828 14.2592 73.3828 14.2592C73.953 14.1674 74.2759 13.5605 74.4618 13.2113C74.4755 13.1855 74.4885 13.1611 74.5007 13.1385C74.5744 13.0025 74.9066 12.2089 75.239 11.375C75.5714 10.5412 75.9445 9.60833 76.068 9.30202C76.4881 8.26049 76.8874 7.26266 77.4918 5.74385C77.8236 4.91 78.3148 3.67918 78.5834 3.0087L79.0717 1.7896L79.7498 1.43933ZM79.5719 4.40264C79.6765 4.66631 79.8367 5.0631 79.9277 5.28433C80.0188 5.50555 80.2737 6.1321 80.4941 6.67665C80.7145 7.22121 80.9853 7.88389 81.0959 8.1493C81.2065 8.41477 81.2971 8.64447 81.2971 8.65982C81.2971 8.67523 80.4669 8.6878 79.4523 8.6878C78.2875 8.6878 77.6075 8.66544 77.6075 8.62714C77.6075 8.59379 77.6465 8.46156 77.6942 8.33322C77.77 8.12913 78.1486 7.04578 78.9846 4.6399C79.1136 4.26842 79.2334 3.94076 79.2506 3.9118C79.3094 3.81273 79.3817 3.92312 79.5719 4.40264Z"
       id="path1" />
  </mask>
  <path
     fill-rule="evenodd"
     clip-rule="evenodd"
     d="m 46.1805,1.05353 c -2.2747,0.57315 -3.3409,2.35678 -2.6944,4.50716 0.277,0.92142 1.1291,1.85097 2.334,2.54614 2.1715,1.25277 2.8109,1.76012 3.1823,2.52447 0.3098,0.6377 0.3367,0.8509 0.1804,1.4289 -0.3666,1.3568 -1.324,2.1051 -2.6937,2.1051 -1.398,0 -2.3797,-0.7842 -2.5988,-2.076 -0.0879,-0.5194 -0.1964,-0.6853 -0.4473,-0.6853 -0.2998,0 -0.3312,0.1374 -0.3312,1.4532 v 1.4529 l 0.9093,0.3089 c 1.4199,0.4822 3.4395,0.4246 4.6446,-0.1325 2.3476,-1.0854 3.2474,-3.2398 2.1937,-5.25276 C 50.4654,8.48077 49.4764,7.64033 47.782,6.61829 46.0013,5.54397 45.2077,4.76252 45.0913,3.9683 c -0.1788,-1.22051 0.919,-2.23064 2.4194,-2.22632 1.1751,0.00328 1.6794,0.28149 2.096,1.15613 0.2608,0.54761 0.4475,0.72862 0.7563,0.73345 0.3415,0.00518 0.3925,-0.0585 0.3053,-0.38209 C 50.611,3.03599 50.5629,2.50065 50.5617,2.05987 50.5599,1.50019 50.479,1.22784 50.2932,1.15691 49.7871,0.963274 46.8329,0.889064 46.1805,1.05353 Z M 0.505859,1.5668 c 0,0.24835 0.115522,0.34516 0.411858,0.34516 0.836183,0 0.881043,0.24129 0.973703,5.24652 0.08088,4.37272 0.11084,4.72192 0.46035,5.36732 0.50071,0.9245 1.17981,1.5397 2.22417,2.0152 0.71547,0.3257 1.16716,0.3947 2.59793,0.3977 1.55217,0.0029 1.835,-0.0472 2.72436,-0.4824 0.54577,-0.267 1.22557,-0.7675 1.51057,-1.1122 0.9885,-1.1947 1.0931,-1.7722 1.2051,-6.64951 0.1079,-4.69666 0.1226,-4.77297 0.9249,-4.78005 0.1867,-0.00155 0.3031,-0.13512 0.3031,-0.34774 0,-0.32601 -0.1155,-0.34516 -2.0784,-0.34516 -1.94009,0 -2.0783,0.02225 -2.0783,0.33428 0,0.25024 0.14028,0.34776 0.5589,0.38831 0.9198,0.08888 0.9945,0.44237 0.9973,4.72552 0.0029,4.34235 -0.1454,5.17775 -1.0752,6.05705 -0.86463,0.8179 -1.55273,1.0934 -2.73081,1.0934 -1.69211,0 -2.89132,-0.7877 -3.28447,-2.1573 C 4.0186,11.2023 3.96993,9.50835 4.00457,6.57168 L 4.05636,2.17083 4.66254,1.976 C 4.99594,1.86882 5.29384,1.65533 5.32466,1.50138 5.3742,1.25407 5.0983,1.22164 2.94323,1.22164 c -2.32185,0 -2.437371,0.01639 -2.437371,0.34516 z m 16.107141,0 c 0,0.26716 0.1155,0.34516 0.5114,0.34516 0.882,0 1.3787,0.33897 1.578,1.07676 0.1135,0.41955 0.1623,2.42321 0.1291,5.28687 -0.0595,5.11311 -0.1296,5.44761 -1.1871,5.65831 -0.3487,0.0695 -0.5118,0.2052 -0.5118,0.4256 0,0.301 0.1694,0.3235 2.4247,0.3235 2.2157,0 2.4247,-0.0265 2.4247,-0.3094 0,-0.2202 -0.2218,-0.3684 -0.7703,-0.5146 -0.6812,-0.1816 -0.7914,-0.2807 -0.9517,-0.8555 -0.2056,-0.7378 -0.2543,-8.51072 -0.0532,-8.48829 0.0713,0.00794 0.7432,0.72637 1.4929,1.59636 0.7496,0.86999 2.8006,3.15445 4.5577,5.07663 2.7501,3.0085 3.2645,3.4948 3.6966,3.4948 h 0.502 l 0.0497,-6.11814 c 0.0351,-4.34407 0.1077,-6.17604 0.2499,-6.31773 0.1103,-0.10976 0.461,-0.25266 0.7794,-0.31755 0.3379,-0.06886 0.579,-0.22299 0.579,-0.36986 0,-0.20606 -0.4318,-0.26043 -2.3815,-0.29978 -2.2929,-0.04625 -2.3814,-0.03504 -2.3814,0.30202 0,0.25611 0.1134,0.35 0.4233,0.35 0.2329,0 0.642,0.18726 0.9093,0.41628 l 0.4859,0.41627 0.0546,4.15715 c 0.031,2.34712 -0.0123,4.15724 -0.0991,4.15724 -0.0845,0 -0.6133,-0.5242 -1.1751,-1.16502 C 27.3883,9.25308 25.7887,7.48638 24.3953,5.96765 23.002,4.44893 21.4798,2.76607 21.0128,2.22813 L 20.1635,1.24994 18.3882,1.23579 C 16.7237,1.2225 16.613,1.24321 16.613,1.5668 Z m 18.1855,0 c 0,0.26319 0.1155,0.34516 0.4865,0.34516 0.2676,0 0.6377,0.1101 0.8227,0.24472 0.3172,0.23109 0.3392,0.52899 0.3903,5.30693 0.064,5.96619 0.0115,6.30059 -1.0133,6.46389 -0.5161,0.0823 -0.6862,0.1895 -0.6862,0.4325 0,0.3013 0.1746,0.323 2.5979,0.323 2.4824,0 2.5979,-0.0153 2.5979,-0.3451 0,-0.2456 -0.1155,-0.3452 -0.3999,-0.3452 -0.2199,0 -0.5511,-0.1101 -0.7361,-0.2447 -0.3185,-0.2319 -0.3387,-0.5303 -0.3864,-5.68829 -0.0488,-5.28378 -0.04,-5.45378 0.3031,-5.79566 0.1944,-0.19364 0.5482,-0.35209 0.7863,-0.35209 0.3175,0 0.433,-0.09198 0.433,-0.34516 0,-0.3298 -0.1155,-0.34516 -2.5979,-0.34516 -2.4824,0 -2.5979,0.01536 -2.5979,0.34516 z m 18.1352,0 c 0.0561,0.21383 0.2363,0.34516 0.4732,0.34516 0.2104,0 0.553,0.1807 0.7614,0.40178 0.2116,0.22436 1.3957,3.06144 2.6833,6.42869 l 2.3047,6.02687 0.6043,0.0517 0.6042,0.0516 1.6191,-4.2799 c 0.8905,-2.35385 1.7125,-4.46611 1.8268,-4.69392 0.1959,-0.39004 0.2396,-0.33064 0.76,1.03552 0.3036,0.79733 1.1121,2.90577 1.7964,4.6854 l 1.244,3.2359 h 0.5482 c 0.3017,0 0.588,-0.1031 0.6367,-0.2293 0.0485,-0.126 0.8443,-2.1647 1.7683,-4.5303 0.9242,-2.36544 1.9477,-4.98609 2.2747,-5.82346 0.7448,-1.90686 0.8939,-2.14226 1.4876,-2.3485 0.264,-0.09164 0.4799,-0.28716 0.4799,-0.43454 0,-0.22712 -0.3154,-0.26786 -2.0783,-0.26786 -1.9628,0 -2.0784,0.01915 -2.0784,0.34516 0,0.25007 0.1156,0.34516 0.4188,0.34516 0.6732,0 0.9668,0.18225 0.9668,0.60042 0,0.34896 -3.2988,9.30252 -3.5022,9.50492 -0.1248,0.1245 -3.1036,-8.19276 -3.2113,-8.96662 -0.1047,-0.75177 0.2164,-1.13872 0.9446,-1.13872 0.2843,0 0.3999,-0.09958 0.3999,-0.34516 0,-0.33032 -0.1156,-0.34516 -2.6846,-0.34516 -2.569,0 -2.6845,0.01484 -2.6845,0.34516 0,0.19674 0.1155,0.34516 0.2685,0.34516 0.5407,0 1.2574,0.52051 1.4416,1.04723 0.2645,0.75574 0.0622,1.52198 -1.495,5.66568 L 60.1896,12.1451 59.9047,11.4725 C 59.7479,11.1026 58.9323,8.92018 58.0925,6.62276 56.4423,2.10939 56.4179,1.91196 57.5082,1.91196 c 0.3829,0 0.4984,-0.0799 0.4984,-0.34516 0,-0.3298 -0.1155,-0.34516 -2.5816,-0.34516 -2.4965,0 -2.5787,0.01139 -2.4913,0.34516 z m 35.0748,0.11914 c 0,0 -2e-4,0.23561 0.0288,0.30117 0.029,0.06555 0.2153,0.09018 0.2153,0.09018 0.1156,0.03102 0.2256,0.05826 0.3295,0.08398 0.5234,0.12962 0.8911,0.22067 1.038,0.56431 0.0993,0.23214 0.1055,1.03932 0.1067,5.36654 0.0013,4.56288 4e-4,5.12208 -0.1217,5.42358 -0.1514,0.3739 -0.4412,0.5724 -1.1098,0.7602 0,0 -0.2958,0.0823 -0.3754,0.1559 -0.0796,0.0735 -0.0946,0.2379 -0.0946,0.2379 0,0 -0.0063,0.1526 0.0619,0.2258 0.0682,0.0732 0.2501,0.0383 0.2501,0.0383 l 1.7332,0.0046 2.8747,0.0232 c 0,0 0.1175,0.0156 0.1784,-0.0622 0.0609,-0.0777 0.0454,-0.2301 0.0454,-0.2301 0,0 0,-0.163 -0.0758,-0.2364 -0.0757,-0.0734 -0.3694,-0.1423 -0.3694,-0.1423 -0.6492,-0.1598 -0.9823,-0.368 -1.1296,-0.7061 -0.1095,-0.2512 -0.1212,-0.9296 -0.1377,-2.3424 V 9.17076 c 0.0726,0.04093 0.1389,0.08734 0.209,0.13637 0.3313,0.23186 0.7463,0.5222 2.2963,0.56706 1.8779,0.05435 3.0075,-0.78123 3.6794,-1.75172 C 98.313,7.15197 98.5736,5.62726 98.0807,4.00303 97.5878,2.37879 96.1415,1.39587 94.1082,1.29426 93.0483,1.2413 91.5063,1.2936 90.6445,1.3327 l -0.2414,0.01083 c -0.783,0.03416 -1.7213,0.10902 -2.1888,0.15349 l -0.0014,1.3e-4 c -0.1272,0.0121 -0.1398,0.0133 -0.1754,0.05848 -0.0357,0.04534 -0.029,0.13031 -0.029,0.13031 z m 7.6312,6.36255 C 96.3951,7.33839 96.4076,6.2276 96.4076,5.51799 96.3335,4.40532 95.8851,2.26549 93.3455,2.26549 92.7518,2.23499 91.5369,2.33746 91.5033,3.16111 91.4665,3.3066 91.4501,4.32437 91.4595,5.88635 l 0.015,2.49299 0.2585,0.13615 0.0139,0.00737 c 0.1403,0.07405 0.3223,0.17017 0.6405,0.23247 1.0096,0.19772 2.4969,0.00327 3.2523,-0.70684 z M 79.7498,1.43933 c 0.1881,-0.07127 0.3121,-0.11888 0.3121,-0.11888 0,0 0.2811,-0.11554 0.3719,0 0.028,0.03559 0.1299,0.29867 0.3826,0.95074 0.0495,0.12792 0.1049,0.27081 0.1667,0.42989 0.3765,0.96999 0.9174,2.3623 1.2021,3.09405 0.2846,0.73174 0.8475,2.17975 1.251,3.21781 0.4034,1.03806 0.9213,2.36976 1.1507,2.95926 0.2296,0.5896 0.5228,1.2026 0.6048,1.3144 0.0403,0.0549 0.0815,0.1232 0.1266,0.198 0.1772,0.2936 0.4149,0.6876 0.8924,0.7647 0,0 0.3738,0.0618 0.4292,0.1204 0.0553,0.0586 0.0679,0.1651 0.0679,0.1651 v 0.2 c 0,0 -0.0064,0.0511 -0.0371,0.0946 -0.0308,0.0434 -0.1438,0.0313 -0.1438,0.0313 l -2.8823,2e-4 -2.0505,0.0148 c 0,0 -0.0716,0.0087 -0.1138,-0.0262 -0.0423,-0.0349 -0.0642,-0.1232 -0.0642,-0.1232 v -0.1507 c 0,0 -0.0177,-0.1132 0.0642,-0.2118 0.0819,-0.0985 0.4112,-0.1099 0.4112,-0.1099 0.6207,-0.0539 0.8671,-0.5827 0.9939,-0.8549 0.0095,-0.0203 0.0183,-0.0392 0.0265,-0.0564 0.1352,-0.2814 0.0864,-0.4647 -0.5243,-1.969 -0.403,-0.9928 -0.5403,-1.2716 -0.6383,-1.2964 -0.0687,-0.0174 -1.1414,-0.0238 -2.3839,-0.0143 l -2.2588,0.0172 -0.1351,0.3713 c -0.3906,1.0739 -0.7375,2.1408 -0.7898,2.4293 -0.1065,0.5869 0.042,1.2396 0.9051,1.3531 0,0 0.32,0.0441 0.4054,0.1085 0.0853,0.0644 0.1153,0.2294 0.1153,0.2294 v 0.1521 c 0,0 -0.0163,0.0724 -0.0751,0.1211 -0.0587,0.0488 -0.2112,0.031 -0.2112,0.031 h -2.1559 l -2.0858,0.0237 c 0,0 -0.0891,-0.002 -0.1549,-0.0369 -0.0658,-0.0349 -0.0763,-0.105 -0.0763,-0.105 v -0.1445 c 0,0 -0.0113,-0.0938 0.1048,-0.2085 0.1162,-0.1148 0.4297,-0.1455 0.4297,-0.1455 0.5702,-0.0918 0.8931,-0.6987 1.079,-1.0479 0.0137,-0.0258 0.0267,-0.0502 0.0389,-0.0728 0.0737,-0.136 0.4059,-0.9296 0.7383,-1.7635 0.3324,-0.8338 0.7055,-1.76667 0.829,-2.07298 C 76.4881,8.26049 76.8874,7.26266 77.4918,5.74385 77.8236,4.91 78.3148,3.67918 78.5834,3.0087 l 0.4883,-1.2191 z m -0.1779,2.96331 c 0.1046,0.26367 0.2648,0.66046 0.3558,0.88169 0.0911,0.22122 0.346,0.84777 0.5664,1.39232 0.2204,0.54456 0.4912,1.20724 0.6018,1.47265 0.1106,0.26547 0.2012,0.49517 0.2012,0.51052 0,0.01541 -0.8302,0.02798 -1.8448,0.02798 -1.1648,0 -1.8448,-0.02236 -1.8448,-0.06066 0,-0.03335 0.039,-0.16558 0.0867,-0.29392 0.0758,-0.20409 0.4544,-1.28744 1.2904,-3.69332 0.129,-0.37148 0.2488,-0.69914 0.266,-0.7281 0.0588,-0.09907 0.1311,0.01132 0.3213,0.49084 z"
     fill="#000000"
     id="path2"
     style="display:none" />
  <path
     d="M 43.4861,5.56069 43.534,5.5463 v -10e-6 z m 2.6944,-4.50716 0.0122,0.04849 v 0 z m -0.3604,7.0533 -0.025,0.0433 v 0 z m 3.1823,2.52447 -0.045,0.0219 v 0 z m 0.1804,1.4289 -0.0482,-0.0131 v 0 z m -5.2925,0.0291 -0.0493,0.0084 h 10e-5 z m -0.7785,2.2208 h -0.05 v 0.0358 l 0.034,0.0115 z m 0.9093,0.3089 -0.0161,0.0473 v 0 z m 4.6446,-0.1325 0.021,0.0454 v 0 z m 2.1937,-5.25276 -0.0443,0.02319 v 0 z M 47.782,6.61829 47.7562,6.66111 v 0 z M 45.0913,3.9683 45.0418,3.97554 v 1e-5 z m 2.4194,-2.22632 -2e-4,0.05 v 0 z m 2.096,1.15613 -0.0452,0.0215 v 0 z m 0.7563,0.73345 -8e-4,0.04999 v 0 z m 0.3053,-0.38209 -0.0482,0.01297 v 3e-5 z m -0.1066,-1.1896 0.05,-1.3e-4 v -2e-5 z m -0.2685,-0.90296 -0.0179,0.0467 10e-5,10e-6 z M 1.89142,7.15848 1.94141,7.15756 v -1e-5 z M 2.35177,12.5258 2.3078,12.5496 h 1e-5 z m 2.22417,2.0152 -0.02072,0.0455 h 10e-6 z m 2.59793,0.3977 -1.1e-4,0.05 h 1e-5 z M 9.89823,14.4563 9.87625,14.4114 v 0 z m 1.51057,-1.1122 -0.0385,-0.0318 v 0 z m 1.2051,-6.64951 0.05,0.00115 v 0 z m 0.9249,-4.78005 -4e-4,-0.04999 h -10e-5 z M 10.2441,1.94423 10.2393,1.994 v 0 z m 0.9973,4.72552 -0.05,3e-5 v 0 z m -1.0752,6.05705 -0.0344,-0.0363 v 0 z M 4.15092,11.6629 4.19898,11.6491 v 0 z m -0.14635,-5.09122 0.05,5.9e-4 v 0 z M 4.05636,2.17083 4.04106,2.12323 4.00678,2.13424 4.00636,2.17024 Z M 4.66254,1.976 4.67784,2.0236 v 0 z M 5.32466,1.50138 5.27564,1.49156 v 1e-5 z M 18.7024,2.98872 18.6542,3.00176 v 1e-5 z m 0.1291,5.28687 0.0499,5.8e-4 v 0 z m -1.1871,5.65831 -0.0098,-0.049 v 0 z m 3.5673,-0.0749 -0.0129,0.0483 v 0 z M 20.26,13.0035 20.2118,13.0169 v 0 z m -0.0532,-8.48829 -0.0056,0.04969 10e-5,1e-5 z m 1.4929,1.59636 0.0379,-0.03264 v 0 z m 4.5577,5.07663 -0.0369,0.0338 v 0 z m 4.1986,3.4948 v 0.05 h 0.0496 l 4e-4,-0.0496 z m 0.0497,-6.11814 0.05,4.1e-4 v 0 z M 30.7556,2.24713 30.7203,2.21168 v 3e-5 z m 0.7794,-0.31755 -0.01,-0.049 v 0 z m -1.8025,-0.66964 10e-4,-0.04999 v 0 z m -1.0488,1.0683 -0.0326,0.03796 v 1e-5 z m 0.4859,0.41627 0.05,-6.6e-4 -3e-4,-0.0226 -0.0171,-0.01471 z m 0.0546,4.15715 -0.05,6.6e-4 v 0 z M 27.95,9.89388 27.9124,9.92684 v 0 z m -3.5547,-3.92623 0.0369,-0.0338 v 0 z M 21.0128,2.22813 21.0506,2.19536 v -1e-5 z M 20.1635,1.24994 20.2013,1.21716 20.1865,1.20012 20.1639,1.19994 Z m -1.7753,-0.01415 -4e-4,0.05 v 0 z m 17.7195,0.92089 0.0294,-0.04042 v -1e-5 z m 0.3903,5.30693 -0.05,5.3e-4 v 0 z m -1.0133,6.46389 -0.0079,-0.0494 v 0 z m 3.3736,-0.1795 -0.0294,0.0404 v 1e-4 z m -0.3864,-5.68829 0.05,-4.6e-4 v 0 z M 38.775,2.26405 38.7397,2.22863 v 0 z M 52.9337,1.5668 52.8854,1.57947 v 2e-5 z m 1.2346,0.74694 -0.0364,0.03429 v 2e-5 z m 2.6833,6.42869 -0.0467,0.01786 v 0 z m 2.3047,6.02687 -0.0467,0.0179 0.0112,0.0293 0.0312,0.0027 z m 0.6043,0.0517 -0.0043,0.0498 v 0 z m 0.6042,0.0516 -0.0042,0.0498 0.0376,0.0032 0.0134,-0.0354 z m 1.6191,-4.2799 -0.0468,-0.0177 v 0 z M 63.8107,5.89878 63.766,5.87634 v 2e-5 z m 0.76,1.03552 0.0467,-0.01779 v -10e-6 z m 1.7964,4.6854 0.0467,-0.0179 h -10e-5 z m 1.244,3.2359 -0.0466,0.018 0.0123,0.032 h 0.0343 z m 1.1849,-0.2293 0.0466,0.018 v 0 z m 1.7683,-4.5303 -0.0466,-0.0182 v 0 z M 72.839,4.27254 72.7925,4.25435 v 1e-5 z m 1.4876,-2.3485 -0.0164,-0.04723 v 0 z M 68.5332,12.0173 68.4979,11.9819 v 0 z M 65.3219,3.05068 65.2723,3.05757 v 0 z M 63.0074,2.95919 62.9602,2.9757 v 0 z m -1.495,5.66568 -0.0468,-0.01759 v 0 z m -1.3228,3.52023 -0.0461,0.0195 0.0488,0.1152 0.0441,-0.1171 z m -0.2849,-0.6726 0.046,-0.0195 v 0 z m -1.8122,-4.84974 0.047,-0.01717 v 0 z M 88.0373,1.98711 88.083,1.96687 v 0 z m -0.0288,-0.30117 0.0502,5e-5 -4e-4,-0.00395 z m 0.2441,0.39135 0.0131,-0.04871 -0.0065,-8.6e-4 z M 88.5821,2.16127 88.57,2.2098 v 0 z m 1.038,0.56431 -0.046,0.01965 v 1e-5 z m 0.1067,5.36654 0.05,-10e-6 v 0 z m -0.1217,5.42358 0.0464,0.0187 v 0 z m -1.1098,0.7602 0.0134,0.0481 h 2e-4 z m -0.3754,0.1559 0.034,0.0367 v 0 z m -0.0946,0.2379 -0.0499,-0.0046 -10e-5,0.0025 z m 0.0619,0.2258 0.0366,-0.0341 v 0 z m 0.2501,0.0383 2e-4,-0.0509 -0.0096,0.0018 z m 1.7332,0.0046 5e-4,-0.05 h -3e-4 z m 2.8747,0.0232 0.0066,-0.0499 -0.0062,-10e-5 z m 0.2238,-0.2923 h -0.0503 l 5e-4,0.005 z M 93.0932,14.4329 93.128,14.397 v 0 z m -0.3694,-0.1423 -0.0119,0.0486 5e-4,10e-5 z m -1.1296,-0.7061 -0.0459,0.02 v 0 z m -0.1377,-2.3424 h -0.05 v 6e-4 z m 0,-2.07134 0.0246,-0.04355 -0.0746,-0.04207 v 0.08562 z m 0.209,0.13637 0.0286,-0.04097 v 0 z m 2.2963,0.56706 0.0015,-0.04998 v 0 z m 4.1189,-5.87116 0.0479,-0.01452 v 0 z M 94.1082,1.29426 94.1057,1.3442 Z m -3.4637,0.03844 0.0023,0.04995 v 0 z m -0.2414,0.01083 0.0021,0.04995 h 1e-4 z M 88.2143,1.49702 88.219,1.5468 v 0 z m -0.0014,1.3e-4 -0.0047,-0.04978 v 0 z m -0.1754,0.05848 0.0393,0.03092 v 0 z m 8.3701,3.96236 h 0.0501 l -2e-4,-0.00333 z m -3.0621,-3.2525 -0.0025,0.05 h 0.0025 z m -1.8422,0.89562 0.0496,0.01255 4e-4,-0.01051 z m -0.0438,2.72524 0.05,-3e-4 v -10e-6 z m 0.015,2.49299 -0.05,3.1e-4 2e-4,0.02997 0.0265,0.01396 z m 0.2585,0.13615 0.0233,-0.04421 v -2e-5 z m 0.0139,0.00737 0.0234,-0.04422 v 0 z m 0.6405,0.23247 -0.0096,0.04907 v 0 z M 80.0619,1.32045 80.0798,1.36714 80.0809,1.36669 Z M 79.7498,1.43933 79.732,1.39227 79.7269,1.39491 Z m 0.684,-0.11888 -0.0393,0.03088 v 1e-5 z m 0.3826,0.95074 -0.0467,0.01806 v 0 z m 0.1667,0.42989 0.0466,-0.01809 v -1e-5 z M 82.1852,5.79513 82.2317,5.777 v 0 z m 1.251,3.21781 0.0466,-0.01811 v 0 z m 1.1507,2.95926 -0.0466,0.0182 h 1e-4 z m 0.6048,1.3144 0.0404,-0.0295 h -1e-4 z m 0.1266,0.198 -0.0428,0.0258 v 0 z m 0.8924,0.7647 0.0081,-0.0494 h -2e-4 z m 0.4292,0.1204 0.0363,-0.0343 v 0 z m 0.0679,0.1651 h 0.0504 l -7e-4,-0.0059 z m 0,0.2 0.05,0.0062 v -0.0062 z m -0.0371,0.0946 -0.0408,-0.0289 v 0 z m -0.1438,0.0313 0.0053,-0.05 h -0.0053 z m -2.8823,2e-4 v -0.05 h -3e-4 z m -2.0505,0.0148 -3e-4,-0.0504 -0.0057,7e-4 z m -0.1138,-0.0262 -0.0319,0.0385 v 0 z m -0.0642,-0.1232 h -0.0516 l 0.003,0.0121 z m 0,-0.1507 h 0.0506 l -0.0012,-0.0077 z m 0.0642,-0.2118 -0.0385,-0.0319 v 0 z m 0.4112,-0.1099 0.0018,0.05 0.0026,-2e-4 z m 0.9939,-0.8549 -0.0453,-0.0212 v 10e-5 z m 0.0265,-0.0564 0.0451,0.0217 v 0 z m -0.5243,-1.969 -0.0463,0.0188 v 0 z m -0.6383,-1.2964 -0.0123,0.0485 v 0 z m -2.3839,-0.0143 4e-4,0.05 v 0 z m -2.2588,0.0172 -4e-4,-0.05 -0.0347,3e-4 -0.0119,0.0326 z m -0.1351,0.3713 -0.047,-0.0171 v 0 z m -0.7898,2.4293 0.0492,0.0089 v 0 z m 0.9051,1.3531 0.0068,-0.0495 -3e-4,-10e-5 z m 0.4054,0.1085 0.0301,-0.04 v 0 z m 0.1153,0.2294 h 0.0508 l -0.0016,-0.0089 z m 0,0.1521 0.05,0.0112 v -0.0112 z m -0.0751,0.1211 -0.0319,-0.0385 v 0 z m -0.2112,0.031 0.0059,-0.05 h -0.0059 z m -2.1559,0 v -0.05 h -6e-4 z m -2.0858,0.0237 -0.0012,0.0501 0.0017,-10e-5 z m -0.2312,-0.1419 h -0.0506 l 0.0011,0.0075 z m 0,-0.1445 h 0.0503 l -7e-4,-0.006 z m 0.1048,-0.2085 0.0352,0.0355 v 0 z m 0.4297,-0.1455 0.0049,0.0498 0.0031,-4e-4 z m 1.079,-1.0479 -0.0442,-0.0235 v 0 z m 0.0389,-0.0728 -0.0439,-0.0238 v 0 z M 76.068,9.30202 76.0217,9.28331 v 0 z M 77.4918,5.74385 77.4453,5.72536 v 0 z m 1.0916,-2.73515 0.0464,0.01859 v 0 z m 0.4883,-1.2191 -0.023,-0.04443 -0.0165,0.00855 -0.0069,0.01729 z m 0.856,3.49473 -0.0462,0.01903 v 1e-5 z M 79.5719,4.40264 79.5255,4.42107 v 10e-6 z m 0.9222,2.27401 -0.0464,0.01876 v 0 z m 0.6018,1.47265 0.0462,-0.01924 v 0 z M 77.6942,8.33322 77.6473,8.31579 v 2e-5 z m 1.2904,-3.69332 0.0472,0.01641 v 0 z m 0.266,-0.7281 -0.043,-0.02554 v 1e-5 z M 43.534,5.54629 C 43.2141,4.48236 43.319,3.51376 43.7807,2.74131 44.2427,1.96856 45.0655,1.38605 46.1927,1.10202 L 46.1683,1.00505 C 45.0208,1.29417 44.1731,1.89005 43.6949,2.69 43.2165,3.49025 43.1116,4.48864 43.4382,5.57509 Z m 2.3111,2.51723 C 44.6463,7.3719 43.8059,6.45101 43.534,5.5463 l -0.0958,0.02878 c 0.282,0.93813 1.1458,1.87635 2.3569,2.57505 z m 3.2022,2.54598 C 48.6682,9.82903 48.014,9.31479 45.8451,8.06352 l -0.05,0.08661 c 2.1741,1.25428 2.7988,1.75475 3.1623,2.50307 z m 0.1838,1.4637 c 0.0786,-0.2906 0.1131,-0.4961 0.0859,-0.7113 -0.027,-0.2141 -0.1146,-0.4333 -0.2697,-0.7524 l -0.0899,0.0437 c 0.1548,0.3185 0.2356,0.5248 0.2604,0.7212 0.0246,0.1953 -0.0056,0.3854 -0.0832,0.6727 z m -2.742,2.1421 c 0.6942,0 1.2873,-0.1898 1.7538,-0.5544 0.4664,-0.3645 0.8026,-0.9008 0.9882,-1.5877 l -0.0965,-0.0261 c -0.1811,0.67 -0.5069,1.1862 -0.9533,1.5351 -0.4463,0.3487 -1.0167,0.5331 -1.6922,0.5331 z m -2.648,-2.1176 c 0.1113,0.6568 0.4173,1.1872 0.8753,1.5531 0.4579,0.3657 1.0643,0.5645 1.7727,0.5645 v -0.1 c -0.6896,0 -1.273,-0.1933 -1.7103,-0.5426 -0.437,-0.3492 -0.7315,-0.8567 -0.8392,-1.4917 z M 43.443,11.454 c 0.0573,0 0.1028,0.0094 0.1408,0.0286 0.0377,0.0191 0.0713,0.0494 0.1021,0.0966 0.0633,0.0969 0.1112,0.2589 0.1551,0.5185 l 0.0986,-0.0167 c -0.044,-0.2598 -0.0943,-0.4405 -0.17,-0.5565 C 43.731,11.4653 43.6849,11.4217 43.6289,11.3934 43.5733,11.3653 43.5112,11.354 43.443,11.354 Z m -0.2812,1.4032 c 0,-0.6607 0.0082,-1.017 0.0519,-1.2089 0.0217,-0.095 0.0499,-0.1392 0.0808,-0.1621 0.0314,-0.0233 0.0754,-0.0322 0.1485,-0.0322 v -0.1 c -0.0769,0 -0.1492,0.0083 -0.208,0.0519 -0.0593,0.0439 -0.0951,0.1163 -0.1188,0.2202 -0.0468,0.2057 -0.0544,0.576 -0.0544,1.2311 z m 0,1.4529 v -1.4529 h -0.1 v 1.4529 z m 0.8754,0.2616 -0.9093,-0.3089 -0.0321,0.0946 0.9092,0.3089 z m 4.6075,-0.1306 c -0.5945,0.2748 -1.3935,0.4277 -2.2222,0.4514 -0.8284,0.0236 -1.6821,-0.082 -2.3853,-0.3208 l -0.0322,0.0946 c 0.7167,0.2434 1.5827,0.3501 2.4204,0.3261 0.8373,-0.0238 1.6507,-0.1783 2.2613,-0.4605 z m 2.1704,-5.18417 c 0.5203,0.99407 0.5575,2.02037 0.1768,2.93177 -0.381,0.9122 -1.1824,1.7139 -2.3472,2.2524 l 0.042,0.0908 c 1.1828,-0.5469 2.0051,-1.3651 2.3975,-2.3047 0.3927,-0.9403 0.3529,-1.9977 -0.1805,-3.01664 z M 47.7562,6.66111 c 1.6944,1.02206 2.672,1.85641 3.0589,2.59582 L 50.9037,9.21056 C 50.5026,8.44402 49.5022,7.59748 47.8079,6.57548 Z M 45.0418,3.97555 c 0.0604,0.4118 0.2957,0.81511 0.7356,1.24833 0.4397,0.43302 1.0872,0.89935 1.9788,1.43723 L 47.8079,6.57548 C 46.9187,6.03903 46.279,5.57747 45.8476,5.15263 45.4164,4.72799 45.1968,4.34346 45.1407,3.96105 Z m 2.469,-2.28357 c -1.5189,-0.00437 -2.6537,1.022 -2.469,2.28356 l 0.099,-0.01449 C 44.968,2.7816 46.0286,1.78772 47.5105,1.79198 Z m 2.141,1.18463 C 49.441,2.43408 49.2049,2.13571 48.8673,1.9495 48.5312,1.7641 48.1011,1.69362 47.5108,1.69198 l -3e-4,0.1 c 0.5848,0.00163 0.9945,0.0719 1.3085,0.24508 0.3125,0.17238 0.5367,0.45044 0.7425,0.88255 z m 0.712,0.70496 C 50.2214,3.57934 50.1099,3.53746 50.0016,3.43248 49.8905,3.32475 49.7818,3.14951 49.6518,2.87661 l -0.0903,0.043 c 0.1309,0.27471 0.2459,0.46378 0.3705,0.58466 0.1275,0.12364 0.2638,0.17468 0.4302,0.17728 z m 0.2563,-0.3191 c 0.0215,0.08016 0.0335,0.14041 0.0354,0.18603 0.0018,0.04542 -0.0065,0.06951 -0.0181,0.08409 -0.0118,0.01477 -0.0342,0.02873 -0.0802,0.03793 -0.046,0.00921 -0.1088,0.01233 -0.1934,0.01105 L 50.3622,3.68155 C 50.4484,3.68286 50.52,3.67996 50.5769,3.66858 50.6338,3.65719 50.6827,3.63597 50.7155,3.59502 50.7484,3.55388 50.7578,3.50171 50.7554,3.44434 50.753,3.38717 50.7386,3.31811 50.7166,3.23647 Z M 50.5117,2.06001 c 0.0012,0.44174 0.0493,0.98243 0.1084,1.20243 L 50.7166,3.23651 C 50.6611,3.02954 50.6129,2.49955 50.6117,2.05974 Z M 50.2754,1.20362 c 0.0723,0.02763 0.1317,0.09624 0.1731,0.23574 0.0416,0.13991 0.0623,0.34214 0.0632,0.62067 l 0.1,-3.1e-4 C 50.6108,1.77856 50.5901,1.56478 50.5444,1.41086 50.4985,1.25654 50.4245,1.15351 50.311,1.1102 Z M 46.1927,1.10202 C 46.35,1.06238 46.6518,1.0362 47.0289,1.02304 c 0.3754,-0.0131 0.8206,-0.0132 1.2616,-0.00212 0.4409,0.01108 0.8769,0.03332 1.2339,0.06483 0.1786,0.01575 0.3368,0.03378 0.4659,0.05379 0.13,0.02017 0.227,0.04188 0.285,0.06407 l 0.0358,-0.0934 C 50.2425,1.08399 50.1365,1.06103 50.0056,1.04072 49.8736,1.02025 49.713,1.002 49.5332,0.986133 49.1736,0.954399 48.7354,0.932066 48.293,0.920948 47.8506,0.90983 47.4033,0.909913 47.0254,0.923102 46.6493,0.936231 46.3373,0.962454 46.1683,1.00505 Z M 0.917717,1.86196 C 0.77262,1.86196 0.684755,1.83775 0.632778,1.79419 0.583162,1.75261 0.555859,1.6842 0.555859,1.5668 h -0.1 c 0,0.13094 0.030459,0.23512 0.112687,0.30403 0.079868,0.06694 0.197932,0.09113 0.349171,0.09113 z M 1.94141,7.15755 C 1.89513,4.65758 1.86084,3.34032 1.73255,2.64913 1.66852,2.30412 1.57908,2.10193 1.44125,1.98917 1.30279,1.87589 1.12605,1.86196 0.917717,1.86196 v 0.1 c 0.209753,0 0.352193,0.01624 0.460213,0.10461 0.10866,0.08889 0.19302,0.25985 0.2563,0.60081 0.12635,0.68077 0.16082,1.98677 0.2072,4.49203 z M 2.39574,12.502 C 2.30932,12.3424 2.24378,12.2032 2.19195,12.0164 2.1399,11.8288 2.1012,11.5915 2.07068,11.2356 2.00957,10.5231 1.98187,9.34476 1.94141,7.15756 L 1.84143,7.1594 c 0.04042,2.18552 0.06814,3.3681 0.12961,4.0847 0.03077,0.3587 0.07015,0.603 0.12455,0.799 0.0546,0.1969 0.12387,0.3434 0.21221,0.5065 z m 2.20092,1.9935 C 3.56124,14.0241 2.89078,13.4161 2.39574,12.502 l -0.08793,0.0476 c 0.50637,0.935 1.19411,1.5574 2.24741,2.0369 z m 2.57731,0.3932 C 6.45868,14.8872 5.99138,14.8691 5.61423,14.8114 5.23863,14.7539 4.95131,14.6569 4.59666,14.4955 l -0.04143,0.091 c 0.36081,0.1642 0.65707,0.2646 1.04387,0.3238 0.38526,0.0589 0.85919,0.0769 1.57466,0.0784 z m 2.70228,-0.4773 c -0.44349,0.217 -0.73149,0.3358 -1.10036,0.4012 -0.37082,0.0656 -0.82514,0.0775 -1.60193,0.0761 l -1.9e-4,0.1 c 0.77538,0.0014 1.23857,-0.0102 1.61955,-0.0777 0.38292,-0.0678 0.68102,-0.1916 1.12689,-0.4098 z m 1.49405,-1.0991 c -0.2792,0.3376 -0.9525,0.8341 -1.49405,1.0991 l 0.04395,0.0898 c 0.55,-0.2691 1.2362,-0.7735 1.5272,-1.1252 z m 1.1936,-6.61886 c -0.056,2.44017 -0.1102,3.79936 -0.2731,4.69796 -0.0812,0.4481 -0.1892,0.7799 -0.3371,1.0731 -0.148,0.2934 -0.3372,0.5501 -0.5834,0.8478 l 0.0771,0.0637 c 0.2479,-0.2997 0.4426,-0.5632 0.5956,-0.8665 0.1532,-0.3036 0.2637,-0.645 0.3462,-1.1003 0.1646,-0.9081 0.2187,-2.27628 0.2747,-4.71346 z m 0.9744,-4.82889 c -0.1969,0.00173 -0.3652,0.00641 -0.4961,0.0985 -0.1327,0.09339 -0.2161,0.26755 -0.2753,0.57343 -0.1185,0.61239 -0.1491,1.81168 -0.203,4.15696 l 0.1,0.0023 c 0.054,-2.35137 0.0848,-3.53857 0.2012,-4.14027 0.0582,-0.30117 0.1356,-0.44095 0.2347,-0.51063 0.1009,-0.07098 0.2352,-0.0785 0.4394,-0.0803 z M 13.7919,1.5668 c 0,0.09751 -0.0267,0.17131 -0.0693,0.22017 -0.0419,0.04813 -0.1034,0.0769 -0.1842,0.07758 l 8e-4,0.09999 C 13.6451,1.96366 13.7351,1.92487 13.798,1.85267 13.8603,1.78121 13.8919,1.68191 13.8919,1.5668 Z M 11.7635,1.27164 c 0.984,0 1.498,0.00497 1.7671,0.04965 0.1352,0.02246 0.1956,0.05324 0.2249,0.08688 0.0282,0.03241 0.0364,0.07728 0.0364,0.15863 h 0.1 c 0,-0.08165 -0.0063,-0.16143 -0.061,-0.22431 C 13.7772,1.28085 13.686,1.24572 13.547,1.22264 13.2675,1.17624 12.7424,1.17164 11.7635,1.17164 Z M 9.7352,1.55592 c 0,-0.07649 0.00923,-0.11871 0.03831,-0.1496 0.03114,-0.03307 0.09437,-0.06317 0.23129,-0.08519 0.272,-0.04376 0.7863,-0.04949 1.7587,-0.04949 v -0.1 c -0.9677,0 -1.4925,0.00539 -1.77462,0.05076 C 9.84868,1.24495 9.75611,1.27892 9.7007,1.33778 9.64323,1.39882 9.6352,1.47639 9.6352,1.55592 Z m 0.5137,0.33855 C 10.0402,1.87425 9.9121,1.84039 9.8362,1.78765 9.76623,1.73903 9.7352,1.67019 9.7352,1.55592 h -0.1 c 0,0.13597 0.03911,0.24101 0.14394,0.31385 0.09889,0.06871 0.25016,0.10389 0.46016,0.12423 z m 1.0425,4.77524 C 11.29,4.53096 11.2709,3.36512 11.1355,2.72381 11.0676,2.40209 10.9687,2.20241 10.8194,2.07921 10.6706,1.9564 10.4801,1.9168 10.2489,1.89446 L 10.2393,1.994 c 0.2287,0.0221 0.3925,0.06002 0.5165,0.16234 0.1235,0.10192 0.2158,0.27497 0.2819,0.58812 0.1326,0.62845 0.1523,1.78092 0.1537,3.92532 z m -1.0909,6.09349 c 0.235,-0.2223 0.4225,-0.4435 0.5704,-0.7195 0.1478,-0.2757 0.2548,-0.6037 0.3319,-1.038 0.1538,-0.8668 0.19,-2.16592 0.1886,-4.33599 l -0.1,7e-5 c 0.0014,2.17228 -0.0351,3.46202 -0.1871,4.31842 -0.0758,0.4272 -0.1801,0.7444 -0.3215,1.0083 -0.1413,0.2637 -0.3211,0.4766 -0.551,0.694 z m -2.76511,1.107 c 0.59295,0 1.06634,-0.0693 1.50153,-0.2436 0.43515,-0.1742 0.82855,-0.4519 1.26358,-0.8634 l -0.0687,-0.0727 c -0.42954,0.4063 -0.81248,0.6753 -1.23205,0.8433 -0.41953,0.168 -0.87923,0.2364 -1.46436,0.2364 z M 4.10286,11.6767 c 0.40073,1.396 1.62372,2.1935 3.33253,2.1935 v -0.1 c -1.67542,0 -2.85083,-0.7779 -3.23641,-2.1211 z M 3.95458,6.5711 c -0.01733,1.46859 -0.01383,2.62701 0.01058,3.4761 0.0122,0.4246 0.02964,0.7723 0.05238,1.043 0.02265,0.2697 0.05078,0.4662 0.08533,0.5865 L 4.19898,11.6491 C 4.16737,11.539 4.13979,11.3511 4.11719,11.0818 4.09466,10.8137 4.07729,10.468 4.06512,10.0444 4.04077,9.19721 4.03725,8.04034 4.05457,6.57227 Z M 4.00636,2.17024 3.95458,6.5711 4.05457,6.57227 4.10635,2.17142 Z M 4.64724,1.9284 4.04106,2.12323 4.07166,2.21843 4.67784,2.0236 Z M 5.27564,1.49157 C 5.27034,1.51803 5.25206,1.55247 5.21726,1.59271 5.18305,1.63229 5.13571,1.67418 5.07794,1.71559 4.9624,1.79841 4.80929,1.8763 4.64724,1.9284 l 0.0306,0.0952 C 4.84919,1.96852 5.01173,1.88608 5.1362,1.79687 5.19842,1.75227 5.25218,1.70522 5.29291,1.65812 5.33306,1.61168 5.36358,1.56171 5.37369,1.5112 Z M 2.94323,1.27164 c 1.07888,0 1.68307,0.00819 2.01161,0.04679 0.16636,0.01954 0.2515,0.04602 0.29248,0.0755 0.01837,0.01321 0.02602,0.02578 0.02955,0.03816 0.00394,0.01379 0.00418,0.03243 -0.00123,0.05947 L 5.37369,1.5112 C 5.38066,1.47642 5.38312,1.43995 5.37303,1.40463 5.36254,1.36789 5.33992,1.33736 5.30572,1.31275 5.24155,1.26659 5.13231,1.23859 4.96651,1.21911 4.63072,1.17966 4.01942,1.17164 2.94323,1.17164 Z M 0.555859,1.5668 c 0,-0.08205 0.008306,-0.12546 0.03993,-0.15752 C 0.630242,1.37434 0.702038,1.34293 0.860863,1.32044 1.17551,1.27587 1.78006,1.27164 2.94323,1.27164 v -0.1 C 1.78455,1.17164 1.17042,1.1756 0.84684,1.22142 0.686553,1.24412 0.584353,1.27846 0.524588,1.33906 0.461993,1.40253 0.455859,1.48447 0.455859,1.5668 Z M 17.1244,1.86196 c -0.1985,0 -0.3118,-0.0204 -0.3762,-0.06384 C 16.6906,1.7592 16.663,1.69439 16.663,1.5668 h -0.1 c 0,0.13957 0.0302,0.24733 0.1293,0.31421 0.0924,0.06236 0.2348,0.08095 0.4321,0.08095 z m 1.6263,1.11372 C 18.6487,2.59817 18.469,2.31758 18.1976,2.13237 17.927,1.94777 17.5713,1.86196 17.1244,1.86196 v 0.1 c 0.4351,0 0.7687,0.08369 1.0168,0.25301 0.2473,0.16873 0.4156,0.42651 0.513,0.78679 z m 0.1307,5.30049 C 18.8981,6.844 18.8942,5.62652 18.8719,4.71439 18.8608,4.25837 18.8451,3.87828 18.825,3.58566 18.805,3.29464 18.7805,3.08599 18.7507,2.97567 l -0.0965,0.0261 c 0.0268,0.09945 0.051,0.29859 0.071,0.59074 0.02,0.29056 0.0357,0.66903 0.0468,1.12432 0.0222,0.9105 0.0261,2.12668 0.0095,3.55818 z m -1.2273,5.70673 c 0.2651,-0.0528 0.4799,-0.1151 0.647,-0.2659 0.1677,-0.1512 0.2806,-0.3848 0.36,-0.7636 0.1585,-0.7552 0.1907,-2.1235 0.2203,-4.67723 L 18.7815,8.27501 c -0.0298,2.55939 -0.0623,3.91479 -0.2182,4.65789 -0.0777,0.3702 -0.1844,0.5794 -0.3291,0.7099 -0.1453,0.131 -0.3359,0.1895 -0.5996,0.2421 z m -0.4715,0.3766 c 0,-0.0957 0.0344,-0.1705 0.1071,-0.2309 0.0751,-0.0625 0.1936,-0.1116 0.3645,-0.1457 l -0.0196,-0.098 c -0.1778,0.0354 -0.3152,0.0889 -0.4088,0.1668 -0.0961,0.0799 -0.1432,0.1831 -0.1432,0.3078 z m 2.3747,0.2735 c -1.1296,0 -1.7314,-0.0057 -2.0515,-0.0484 -0.1615,-0.0216 -0.2397,-0.0514 -0.2787,-0.0853 -0.0341,-0.0296 -0.0445,-0.0682 -0.0445,-0.1398 h -0.1 c 0,0.0789 0.0107,0.156 0.0789,0.2152 0.0632,0.055 0.1684,0.0873 0.3311,0.109 0.3284,0.0438 0.9389,0.0493 2.0647,0.0493 z m 2.3747,-0.2594 c 0,0.0642 -0.0115,0.0998 -0.048,0.1283 -0.0426,0.0332 -0.1257,0.062 -0.2898,0.0829 -0.3252,0.0415 -0.9274,0.0482 -2.0369,0.0482 v 0.1 c 1.1062,0 1.7164,-0.0065 2.0496,-0.049 0.1651,-0.0211 0.2728,-0.0519 0.3386,-0.1033 0.072,-0.0561 0.0865,-0.1298 0.0865,-0.2071 z m -0.7332,-0.4663 c 0.2732,0.0728 0.4591,0.1447 0.576,0.2228 0.1145,0.0765 0.1572,0.1548 0.1572,0.2435 h 0.1 c 0,-0.1315 -0.0682,-0.2374 -0.2017,-0.3266 -0.1312,-0.0877 -0.3304,-0.163 -0.6058,-0.2363 z m -0.987,-0.8904 c 0.0801,0.2872 0.1507,0.469 0.2953,0.599 0.143,0.1286 0.3527,0.201 0.6917,0.2914 l 0.0257,-0.0966 C 20.8824,13.7195 20.6964,13.6516 20.5739,13.5415 20.4531,13.4329 20.3884,13.2777 20.3081,12.99 Z m 5e-4,-8.55138 c -0.0258,-0.00288 -0.0436,0.01146 -0.0521,0.02108 -0.0085,0.00952 -0.014,0.02072 -0.0178,0.02984 -0.0077,0.01888 -0.014,0.04413 -0.0195,0.07294 -0.0112,0.05857 -0.021,0.14341 -0.0298,0.24974 -0.0176,0.21323 -0.0315,0.51899 -0.0417,0.88778 -0.0205,0.73786 -0.0269,1.73105 -0.0205,2.74767 0.0063,1.01666 0.0254,2.05723 0.0558,2.89003 0.0152,0.4163 0.0332,0.7811 0.0538,1.065 0.0206,0.2819 0.044,0.4893 0.0713,0.5873 l 0.0963,-0.0268 C 20.284,12.9036 20.261,12.7067 20.2403,12.4224 20.2197,12.1401 20.2018,11.7767 20.1866,11.361 20.1563,10.5295 20.1372,9.48993 20.1309,8.47395 c -0.0064,-1.01602 0,-2.00797 0.0204,-2.74427 0.0103,-0.3683 0.024,-0.67188 0.0414,-0.88232 0.0088,-0.10551 0.0183,-0.18608 0.0284,-0.23927 0.0052,-0.02707 0.01,-0.04428 0.0138,-0.05355 0.002,-0.00494 0.0024,-0.00423 0,-0.00152 -0.0025,0.00283 -0.0141,0.01406 -0.0337,0.01188 z m 1.5253,1.61341 C 21.3624,5.64356 21.0065,5.24593 20.7354,4.95597 20.5999,4.81106 20.4851,4.69264 20.3995,4.60973 20.3568,4.56837 20.3207,4.53523 20.2926,4.51191 20.2786,4.50031 20.2657,4.49044 20.2545,4.48306 20.2489,4.47938 20.2429,4.47582 20.2368,4.47291 20.2313,4.47031 20.2227,4.46667 20.2123,4.46552 l -0.011,0.09939 c -0.0059,-6.6e-4 -0.009,-0.00241 -0.0076,-0.00178 7e-4,3.3e-4 0.0026,0.00136 0.006,0.00359 0.0068,0.00444 0.0164,0.01167 0.0291,0.02218 0.0252,0.02089 0.0591,0.05197 0.1011,0.09267 0.0839,0.08122 0.1974,0.19827 0.3324,0.3427 0.2701,0.28874 0.625,0.68532 0.9996,1.11994 z m 4.5567,5.07557 C 24.5372,9.23231 22.4867,6.94832 21.7376,6.07893 l -0.0757,0.06528 c 0.7501,0.87059 2.8015,3.15552 4.5586,5.07779 z m 3.6597,3.4785 c -0.1938,0 -0.417,-0.1066 -0.9447,-0.6055 -0.5248,-0.4961 -1.3395,-1.3683 -2.715,-2.873 l -0.0738,0.0675 c 1.3746,1.5038 2.1921,2.379 2.7201,2.8781 0.5251,0.4964 0.7751,0.6329 1.0134,0.6329 z m 0.502,0 h -0.502 v 0.1 h 0.502 z m -3e-4,-6.06854 -0.0497,6.11814 0.1,8e-4 0.0497,-6.11813 z m 0.2646,-6.35275 c -0.0167,0.0166 -0.0283,0.0403 -0.0374,0.06443 -0.0095,0.02539 -0.0182,0.05703 -0.0263,0.09435 -0.0162,0.07474 -0.0311,0.17696 -0.0448,0.30744 -0.0276,0.26121 -0.0511,0.64055 -0.0713,1.1502 -0.0403,1.01956 -0.0673,2.56425 -0.0848,4.73633 l 0.1,8.1e-4 C 30.5732,6.39328 30.6002,4.84995 30.6404,3.83208 30.6606,3.32301 30.684,2.94629 30.7112,2.6884 30.7248,2.55933 30.7392,2.46124 30.7543,2.39171 30.7619,2.35689 30.7694,2.3304 30.7765,2.31126 30.7801,2.30174 30.7834,2.29469 30.7862,2.28967 30.7875,2.2872 30.7887,2.28542 30.7896,2.2842 30.7904,2.28297 30.7909,2.28251 30.7909,2.28255 Z M 31.525,1.88058 C 31.3626,1.91368 31.1924,1.96656 31.0484,2.02522 30.9066,2.083 30.7831,2.14921 30.7203,2.21168 l 0.0705,0.07089 c 0.0476,-0.04729 0.1546,-0.1074 0.2953,-0.16474 0.1386,-0.05645 0.3029,-0.10747 0.4588,-0.13926 z m 0.539,-0.32086 c 0,0.04628 -0.0403,0.1085 -0.1398,0.17205 -0.096,0.06136 -0.2346,0.11526 -0.3992,0.14881 l 0.0199,0.09799 C 31.7182,1.94326 31.8691,1.88567 31.9781,1.81604 32.0836,1.74859 32.164,1.66032 32.164,1.55972 Z M 29.7315,1.30993 c 0.9755,0.01969 1.5681,0.04312 1.9166,0.08699 0.1751,0.02205 0.283,0.04867 0.346,0.07948 0.0309,0.01511 0.0479,0.02976 0.0572,0.04247 0.0087,0.01184 0.0127,0.02461 0.0127,0.04085 h 0.1 c 0,-0.03527 -0.0096,-0.06928 -0.0321,-0.1 C 32.11,1.42986 32.078,1.40614 32.038,1.38657 31.9591,1.348 31.8371,1.31993 31.6606,1.29771 31.3058,1.25304 30.7077,1.22961 29.7335,1.20995 Z m -2.3304,0.25203 c 0,-0.0858 0.007,-0.13024 0.0364,-0.16195 0.0309,-0.0335 0.0972,-0.06372 0.2507,-0.0832 0.3041,-0.03856 0.8944,-0.03005 2.0433,-0.00688 l 0.002,-0.09998 C 28.5895,1.18688 27.9891,1.17786 27.6757,1.21761 27.5205,1.23728 27.4213,1.27017 27.364,1.33213 27.3051,1.39587 27.3011,1.47923 27.3011,1.56196 Z m 0.3733,0.3 c -0.1526,0 -0.2431,-0.02372 -0.296,-0.06749 C 27.4282,1.75294 27.4011,1.68391 27.4011,1.56196 h -0.1 c 0,0.13416 0.0296,0.24013 0.1136,0.30957 0.0812,0.06721 0.2024,0.09043 0.3597,0.09043 z m 0.9418,0.42831 C 28.5785,2.1723 28.4054,2.06585 28.237,1.98876 28.0698,1.91223 27.9015,1.86196 27.7744,1.86196 v 0.1 c 0.1058,0 0.2585,0.04337 0.4209,0.11772 0.1612,0.0738 0.3262,0.17547 0.4558,0.28652 z m 0.486,0.41627 -0.486,-0.41628 -0.0651,0.07595 0.486,0.41627 z m 0.072,4.19446 -0.0546,-4.15715 -0.1,0.00132 0.0546,4.15715 z m -0.1491,4.2079 c 0.0263,0 0.0419,-0.0171 0.048,-0.0253 0.0069,-0.0092 0.0115,-0.0197 0.0147,-0.0284 0.0067,-0.0181 0.0122,-0.0423 0.017,-0.0701 0.0099,-0.0565 0.0187,-0.1383 0.0266,-0.2419 0.0159,-0.2077 0.0285,-0.5084 0.0374,-0.88158 C 29.2866,9.1149 29.2897,8.07494 29.2742,6.901 l -0.1,0.00132 c 0.0155,1.17317 0.0124,2.21182 -0.0054,2.95691 -0.0089,0.37267 -0.0214,0.67127 -0.0371,0.87627 -0.0078,0.1028 -0.0164,0.1808 -0.0254,0.2324 -0.0046,0.0262 -0.0089,0.0433 -0.0124,0.0528 -0.0018,0.0051 -0.0024,0.0051 -8e-4,0.0029 9e-4,-0.0012 0.0112,-0.0147 0.032,-0.0147 z M 27.9124,9.92684 c 0.2815,0.32106 0.555,0.61316 0.769,0.82536 0.1069,0.106 0.1995,0.1926 0.2713,0.253 0.0357,0.0301 0.0672,0.0545 0.0932,0.0716 0.013,0.0086 0.0255,0.016 0.0373,0.0214 0.0106,0.0049 0.0256,0.0107 0.0419,0.0107 v -0.1 c 0.0058,0 0.0068,0.0016 0,-0.0015 -0.0055,-0.0025 -0.0135,-0.007 -0.0242,-0.0141 -0.0213,-0.014 -0.0494,-0.0356 -0.0838,-0.0646 -0.0688,-0.0579 -0.1593,-0.1424 -0.2653,-0.2475 -0.212,-0.2102 -0.4839,-0.5005 -0.7642,-0.82028 z M 24.3585,6.00146 c 1.3934,1.51873 2.9926,3.28505 3.5539,3.92538 L 27.9876,9.86092 C 27.4255,9.21965 25.8255,7.45257 24.4322,5.93385 Z M 20.9751,2.26091 c 0.4674,0.53854 1.9901,2.22189 3.3834,3.74055 L 24.4322,5.93385 C 23.0388,4.41506 21.517,2.73269 21.0506,2.19536 Z M 20.1257,1.28272 20.9751,2.26091 21.0506,2.19535 20.2013,1.21716 Z m -1.7379,0.00307 1.7753,0.01415 8e-4,-0.1 -1.7753,-0.01415 z M 16.663,1.5668 c 0,-0.08088 0.0078,-0.127 0.0329,-0.15959 0.0248,-0.03216 0.075,-0.06172 0.1897,-0.08309 0.2297,-0.04284 0.6671,-0.045 1.5022,-0.03833 l 8e-4,-0.1 C 17.5592,1.17917 17.109,1.18072 16.8672,1.22581 16.7461,1.2484 16.6647,1.28386 16.6167,1.34619 16.569,1.40807 16.563,1.48589 16.563,1.5668 Z m 18.622,0.29516 c -0.1854,0 -0.2923,-0.02129 -0.3535,-0.06466 -0.0555,-0.0394 -0.083,-0.10502 -0.083,-0.2305 h -0.1 c 0,0.1377 0.0302,0.24467 0.1252,0.31206 0.0893,0.06341 0.2257,0.0831 0.4113,0.0831 z m 0.8521,0.25429 C 36.0383,2.04433 35.8936,1.98113 35.7416,1.93592 35.5891,1.89058 35.4248,1.86196 35.285,1.86196 v 0.1 c 0.1277,0 0.2823,0.02644 0.428,0.06981 0.1462,0.04349 0.2791,0.10264 0.3652,0.16534 z M 36.548,7.46307 C 36.5225,5.07502 36.5042,3.804 36.4525,3.1014 36.4267,2.75069 36.3924,2.53672 36.3425,2.3949 36.2911,2.24864 36.2231,2.1789 36.1371,2.11626 l -0.0589,0.08083 c 0.0727,0.05291 0.1264,0.10707 0.17,0.23097 0.0451,0.12833 0.0789,0.33079 0.1046,0.68068 0.0514,0.69861 0.0697,1.96551 0.0952,4.3554 z m -1.0555,6.51383 c 0.2568,-0.041 0.4668,-0.0941 0.6271,-0.2539 0.1597,-0.1591 0.2624,-0.416 0.3294,-0.8436 0.1341,-0.8551 0.131,-2.4358 0.099,-5.41633 l -0.1,0.00107 c 0.032,2.98566 0.0346,4.55526 -0.0978,5.39976 -0.0662,0.4221 -0.1648,0.6523 -0.3012,0.7883 -0.1357,0.1353 -0.3166,0.1852 -0.5722,0.2259 z m -0.644,0.3831 c 0,-0.0549 0.0096,-0.0987 0.0288,-0.1352 0.0192,-0.0364 0.0498,-0.069 0.0974,-0.099 0.0976,-0.0615 0.26,-0.1078 0.5178,-0.1489 l -0.0157,-0.0988 c -0.2583,0.0412 -0.439,0.0897 -0.5554,0.1631 -0.0595,0.0375 -0.1037,0.0823 -0.1325,0.1369 -0.0287,0.0545 -0.0404,0.1153 -0.0404,0.1819 z m 2.5479,0.273 c -1.2135,0 -1.8589,-0.0055 -2.2015,-0.0481 -0.1731,-0.0215 -0.2575,-0.0515 -0.2996,-0.086 C 34.859,14.4692 34.8485,14.4312 34.8485,14.36 h -0.1 c 0,0.0794 0.0112,0.1571 0.0834,0.2163 0.0664,0.0543 0.1771,0.0862 0.3506,0.1078 0.3505,0.0436 1.004,0.0489 2.2139,0.0489 z m 2.5479,-0.2951 c 0,0.0823 -0.0083,0.1251 -0.0415,0.1571 -0.0369,0.0355 -0.1139,0.0671 -0.2831,0.0896 -0.335,0.0445 -0.98,0.0484 -2.2233,0.0484 v 0.1 c 1.2391,0 1.8931,-0.0037 2.2364,-0.0493 0.17,-0.0226 0.277,-0.0566 0.3394,-0.1167 0.066,-0.0637 0.0721,-0.1465 0.0721,-0.2291 z m -0.3499,-0.2952 c 0.1385,0 0.2233,0.0247 0.274,0.0684 0.0487,0.042 0.0759,0.1109 0.0759,0.2268 h 0.1 c 0,-0.1297 -0.0305,-0.2334 -0.1106,-0.3025 -0.0783,-0.0676 -0.1934,-0.0927 -0.3393,-0.0927 z m -0.7655,-0.2542 c 0.0979,0.0712 0.232,0.1344 0.3686,0.1798 0.1365,0.0454 0.2798,0.0744 0.3969,0.0744 v -0.1 c -0.1028,0 -0.235,-0.026 -0.3654,-0.0693 -0.1302,-0.0433 -0.2541,-0.1024 -0.3412,-0.1658 z m -0.407,-5.72832 c 0.0239,2.57812 0.0408,3.94412 0.0918,4.69432 0.0254,0.3745 0.0595,0.6003 0.1092,0.7481 0.0251,0.0748 0.0546,0.1308 0.0897,0.1765 0.0352,0.0456 0.0745,0.0789 0.1163,0.1093 l 0.0589,-0.0808 C 38.85,13.6801 38.819,13.6533 38.7919,13.6181 38.7648,13.5829 38.74,13.5372 38.7177,13.4708 38.6725,13.3362 38.6388,13.1216 38.6134,12.7477 38.5627,12.0013 38.5458,10.6391 38.5219,8.05925 Z M 38.7397,2.22863 C 38.6512,2.31684 38.5803,2.39811 38.5286,2.55517 38.478,2.70851 38.4461,2.93265 38.4266,3.30606 38.3875,4.05374 38.3975,5.4193 38.4219,8.06018 l 0.1,-9.3e-4 c -0.0244,-2.6429 -0.0343,-4.00423 0.0045,-4.74797 0.0195,-0.3723 0.0511,-0.585 0.0971,-0.72481 0.0449,-0.13609 0.1038,-0.20427 0.1868,-0.287 z m 0.8216,-0.36667 c -0.1286,0 -0.2838,0.04234 -0.43,0.1078 -0.1466,0.06564 -0.2891,0.15678 -0.3916,0.25887 l 0.0706,0.07084 C 38.9022,2.20792 39.0337,2.12302 39.1722,2.06103 39.311,1.99885 39.4518,1.96196 39.5613,1.96196 Z m 0.383,-0.29516 c 0,0.12006 -0.0274,0.18761 -0.0786,0.22842 -0.0545,0.04342 -0.1477,0.06674 -0.3044,0.06674 v 0.1 c 0.1608,0 0.2841,-0.02266 0.3667,-0.08853 0.086,-0.06848 0.1163,-0.17351 0.1163,-0.30663 z M 37.3964,1.27164 c 1.2433,0 1.8883,0.00396 2.2233,0.04847 0.1692,0.02248 0.2462,0.0541 0.2831,0.08962 0.0332,0.032 0.0415,0.07482 0.0415,0.15707 h 0.1 c 0,-0.08265 -0.0061,-0.16543 -0.0721,-0.22907 C 39.9098,1.27762 39.8028,1.24355 39.6329,1.22098 39.2895,1.17535 38.6355,1.17164 37.3964,1.17164 Z M 34.8485,1.5668 c 0,-0.08225 0.0083,-0.12507 0.0415,-0.15707 0.0369,-0.03552 0.1139,-0.06714 0.2831,-0.08962 0.335,-0.04451 0.98,-0.04847 2.2233,-0.04847 v -0.1 c -1.2391,0 -1.8931,0.00371 -2.2364,0.04934 -0.17,0.02257 -0.277,0.05664 -0.3394,0.11675 -0.066,0.06364 -0.0721,0.14642 -0.0721,0.22907 z m 18.5584,0.29516 c -0.2165,0 -0.375,-0.11816 -0.4248,-0.30785 l -0.0967,0.02538 c 0.0624,0.23797 0.2641,0.38247 0.5215,0.38247 z m 0.7977,0.41749 C 54.0962,2.16435 53.9538,2.06072 53.8117,1.98573 53.6707,1.91133 53.5239,1.86196 53.4069,1.86196 v 0.1 c 0.0934,0 0.2231,0.04098 0.3581,0.11221 0.1339,0.07062 0.267,0.16788 0.3669,0.27386 z m 2.6937,6.44512 C 56.2544,7.0406 55.6363,5.48904 55.1526,4.33024 54.9108,3.75089 54.7024,3.26939 54.5412,2.91848 54.4606,2.74307 54.3915,2.59983 54.3358,2.49314 54.308,2.43981 54.2832,2.39515 54.2619,2.35995 54.241,2.32556 54.2217,2.29751 54.2046,2.27943 l -0.0727,0.06862 c 0.0094,0.00997 0.0242,0.03037 0.0445,0.06383 0.0198,0.03265 0.0435,0.07524 0.0708,0.12754 0.0546,0.10455 0.1228,0.24607 0.2031,0.42081 0.1606,0.34937 0.3684,0.82965 0.61,1.40853 0.4832,1.15764 1.1009,2.70824 1.7446,4.39153 z m 2.3047,6.02693 -2.3047,-6.02693 -0.0934,0.03572 2.3047,6.02691 z m 0.5618,0.0197 -0.6043,-0.0517 -0.0085,0.0997 0.6043,0.0516 z m 0.6043,0.0515 -0.6043,-0.0515 -0.0085,0.0996 0.6043,0.0516 z m 1.568,-4.2477 -1.619,4.2799 0.0935,0.0353 1.619,-4.2798 z M 63.766,5.87636 C 63.7075,5.99299 63.4722,6.58127 63.1418,7.43034 62.8106,8.28129 62.3824,9.39797 61.9371,10.575 l 0.0935,0.0354 C 62.4759,9.43358 62.9039,8.31721 63.235,7.46661 63.5668,6.61413 63.7996,6.03238 63.8554,5.9212 Z M 64.6174,6.9165 C 64.4874,6.57509 64.3868,6.31445 64.306,6.12197 64.2259,5.93091 64.1635,5.80227 64.1093,5.72838 64.0825,5.69187 64.053,5.66206 64.0185,5.64834 63.979,5.63263 63.9414,5.64108 63.9102,5.663 63.882,5.68281 63.8579,5.71405 63.836,5.74847 63.8137,5.78376 63.7906,5.82739 63.766,5.87634 l 0.0894,0.04488 c 0.0244,-0.04856 0.0456,-0.08839 0.0651,-0.11918 0.0201,-0.03165 0.0356,-0.04908 0.0472,-0.05721 0.0085,-0.00601 0.0109,-0.00475 0.0139,-0.00356 0.008,0.00318 0.0237,0.01436 0.0471,0.04628 0.0462,0.06298 0.1046,0.18097 0.1851,0.37309 0.08,0.1907 0.18,0.44979 0.3102,0.79146 z m 1.7963,4.6853 C 65.7295,9.82212 64.921,7.71376 64.6174,6.91651 L 64.524,6.9521 c 0.3036,0.79741 1.1121,2.90591 1.7964,4.6856 z m 1.2441,3.2359 -1.244,-3.2359 -0.0934,0.0359 1.2441,3.2359 z m 0.5015,-0.0321 h -0.5482 v 0.1 h 0.5482 z m 0.59,-0.1973 c -0.0073,0.0189 -0.0257,0.0419 -0.06,0.0664 -0.0336,0.024 -0.079,0.0468 -0.1337,0.0665 -0.1095,0.0395 -0.2507,0.0644 -0.3963,0.0644 v 0.1 c 0.1561,0 0.3089,-0.0266 0.4302,-0.0703 0.0606,-0.0218 0.1148,-0.0485 0.1579,-0.0793 0.0426,-0.0303 0.0782,-0.0675 0.0952,-0.1117 z m 1.7684,-4.5305 c -0.9239,2.3654 -1.7198,4.4044 -1.7684,4.5305 l 0.0933,0.036 c 0.0485,-0.1259 0.8442,-2.1644 1.7683,-4.5301 z m 2.2748,-5.82344 c -0.327,0.83736 -1.3506,3.45801 -2.2748,5.82344 l 0.0932,0.0364 C 71.535,7.74876 72.5586,5.1281 72.8856,4.29073 Z m 1.5177,-2.37755 c -0.1504,0.05225 -0.2765,0.10762 -0.3915,0.19287 -0.1153,0.08544 -0.2168,0.19889 -0.3215,0.36412 -0.2077,0.32798 -0.433,0.86876 -0.8047,1.82055 l 0.0931,0.03638 c 0.373,-0.95507 0.5947,-1.48541 0.7961,-1.80342 0.0999,-0.15775 0.1936,-0.261 0.2965,-0.33729 0.1032,-0.07649 0.2184,-0.12788 0.3648,-0.17875 z M 74.7565,1.4895 c 0,0.05179 -0.0403,0.1249 -0.1245,0.20111 -0.0817,0.07397 -0.1958,0.14244 -0.3218,0.1862 l 0.0328,0.09447 c 0.1379,-0.04789 0.2638,-0.123 0.3561,-0.20654 0.0898,-0.08132 0.1574,-0.17965 0.1574,-0.27524 z M 72.7282,1.27164 c 0.8826,0 1.3985,0.01027 1.6939,0.04835 0.1486,0.01916 0.2338,0.0446 0.2811,0.07422 0.0225,0.0141 0.0349,0.02823 0.0421,0.04192 0.0073,0.01385 0.0112,0.0308 0.0112,0.05337 h 0.1 c 0,-0.03422 -0.0059,-0.06823 -0.0227,-0.10007 C 74.8168,1.35742 74.7908,1.33111 74.7562,1.30945 74.6893,1.26755 74.5854,1.24022 74.4349,1.22081 74.1318,1.18173 73.6086,1.17164 72.7282,1.17164 Z M 70.6998,1.5668 c 0,-0.08135 0.0082,-0.12622 0.0365,-0.15863 0.0293,-0.03364 0.0896,-0.06442 0.2249,-0.08688 0.269,-0.04468 0.783,-0.04965 1.767,-0.04965 v -0.1 c -0.9789,0 -1.504,0.0046 -1.7834,0.051 -0.139,0.02308 -0.2302,0.05821 -0.2839,0.11985 -0.0548,0.06288 -0.0611,0.14266 -0.0611,0.22431 z m 0.3688,0.29516 c -0.1489,0 -0.2385,-0.0239 -0.2913,-0.06739 C 70.7272,1.75327 70.6998,1.68516 70.6998,1.5668 h -0.1 c 0,0.13172 0.0305,0.23619 0.1139,0.30495 0.0808,0.06657 0.2006,0.09021 0.3549,0.09021 z m 1.0168,0.65042 c 0,-0.22298 -0.0796,-0.39089 -0.2546,-0.4995 C 71.6611,1.90744 71.4076,1.86196 71.0686,1.86196 v 0.1 c 0.3342,0 0.5642,0.04565 0.7095,0.13587 0.1402,0.08706 0.2073,0.21936 0.2073,0.41455 z m -3.5169,9.54042 c 0.0126,-0.0125 0.0252,-0.0343 0.0368,-0.056 0.0128,-0.0242 0.0283,-0.0561 0.0462,-0.0948 0.0357,-0.0777 0.0819,-0.1851 0.1368,-0.3178 0.1099,-0.2654 0.2556,-0.6335 0.4246,-1.0703 0.3379,-0.87366 0.7695,-2.02301 1.1946,-3.17682 0.4251,-1.1538 0.8439,-2.3123 1.1565,-3.20427 C 71.7202,3.68687 71.85,3.30729 71.9408,3.02814 71.9862,2.88862 72.0219,2.77379 72.0464,2.68813 72.0586,2.64535 72.0681,2.60936 72.0747,2.58097 72.0808,2.5542 72.0854,2.5297 72.0854,2.51238 h -0.1 c 0,0.00448 -0.0018,0.0186 -0.0082,0.04619 -0.006,0.02598 -0.015,0.0601 -0.027,0.10211 -0.0239,0.08394 -0.0593,0.19744 -0.1045,0.33654 -0.0904,0.27808 -0.2199,0.65683 -0.3761,1.10252 -0.3123,0.8913 -0.7309,2.04926 -1.156,3.20277 -0.425,1.15351 -0.8563,2.30232 -1.194,3.17529 -0.1689,0.4365 -0.3143,0.8038 -0.4237,1.0682 -0.0548,0.1322 -0.1003,0.2382 -0.1353,0.3142 -0.0174,0.038 -0.032,0.0679 -0.0436,0.0895 -0.0057,0.0109 -0.0105,0.0191 -0.0142,0.0251 -0.0043,0.0066 -0.0058,0.008 -0.0049,0.0071 z M 65.2723,3.05757 c 0.0142,0.10148 0.0739,0.32021 0.1655,0.62028 0.0922,0.30184 0.2181,0.69019 0.3663,1.13369 0.2965,0.88705 0.683,1.99572 1.0699,3.07618 0.387,1.08044 0.7746,2.13298 1.0733,2.90788 0.1493,0.3873 0.2766,0.7058 0.3706,0.9237 0.0469,0.1088 0.086,0.1936 0.1157,0.2497 0.0146,0.0276 0.0281,0.0506 0.0401,0.0662 0.0054,0.0071 0.0138,0.017 0.0247,0.024 0.0057,0.0036 0.0159,0.0089 0.0295,0.0095 0.0157,6e-4 0.0302,-0.0056 0.0406,-0.016 l -0.0706,-0.0708 c 0.0085,-0.0085 0.0207,-0.0137 0.0338,-0.0132 0.0109,5e-4 0.0181,0.0047 0.0205,0.0062 0.0043,0.0027 0.0046,0.0044 8e-4,-6e-4 C 68.5464,11.9657 68.5361,11.949 68.522,11.9223 68.4942,11.8698 68.4564,11.788 68.4097,11.6797 68.3165,11.4636 68.1898,11.1466 68.0406,10.7596 67.7423,9.9858 67.355,8.93405 66.9682,7.854 66.5814,6.77398 66.1952,5.66602 65.8989,4.77984 65.7508,4.33671 65.6253,3.94929 65.5335,3.64864 65.4411,3.34623 65.3842,3.13577 65.3714,3.04378 Z m 0.9942,-1.19561 c -0.3719,0 -0.6517,0.09888 -0.8231,0.30552 -0.171,0.20608 -0.2243,0.50751 -0.1711,0.89009 L 65.3714,3.04379 C 65.32,2.6746 65.3749,2.40667 65.5204,2.23133 65.6654,2.05656 65.9102,1.96196 66.2665,1.96196 Z M 66.6164,1.5668 c 0,0.11588 -0.0273,0.18478 -0.076,0.22682 -0.0506,0.04367 -0.1355,0.06834 -0.2739,0.06834 v 0.1 c 0.1459,0 0.261,-0.02511 0.3392,-0.09263 C 66.6858,1.80019 66.7164,1.6965 66.7164,1.5668 Z M 63.9818,1.27164 c 1.2866,0 1.9534,0.00382 2.2993,0.0483 0.1749,0.02248 0.2547,0.05419 0.2928,0.09003 0.0341,0.03198 0.0425,0.07449 0.0425,0.15683 h 0.1 c 0,-0.08282 -0.0061,-0.16604 -0.074,-0.22974 C 66.5786,1.27721 66.469,1.24327 66.2938,1.22076 65.9398,1.17523 65.2643,1.17164 63.9818,1.17164 Z M 61.3473,1.5668 c 0,-0.08234 0.0083,-0.12485 0.0424,-0.15683 0.0382,-0.03584 0.118,-0.06755 0.2929,-0.09003 0.3459,-0.04448 1.0127,-0.0483 2.2992,-0.0483 v -0.1 c -1.2824,0 -1.9579,0.00359 -2.312,0.04912 -0.1751,0.02251 -0.2848,0.05645 -0.3485,0.1163 -0.0679,0.0637 -0.074,0.14692 -0.074,0.22974 z m 0.2185,0.29516 c -0.1144,0 -0.2185,-0.11362 -0.2185,-0.29516 h -0.1 c 0,0.21195 0.127,0.39516 0.3185,0.39516 z m 1.4888,1.08072 C 62.958,2.66661 62.7246,2.39728 62.4496,2.1976 62.1749,1.99803 61.8504,1.86196 61.5658,1.86196 v 0.1 c 0.2561,0 0.5602,0.12419 0.8251,0.31655 0.2647,0.19225 0.4816,0.44653 0.5693,0.69719 z M 61.5592,8.64246 C 62.3376,6.57133 62.7785,5.34126 62.9914,4.5343 63.2048,3.72545 63.1915,3.33376 63.0546,2.94267 L 62.9602,2.9757 c 0.1277,0.36466 0.1454,0.73395 -0.0655,1.53309 -0.2114,0.80102 -0.6502,2.02592 -1.4291,4.09849 z M 60.2364,12.1627 61.5592,8.64246 61.4656,8.60728 60.1428,12.1275 Z m -0.3778,-0.6707 0.2849,0.6726 0.0921,-0.039 -0.2849,-0.6726 z m -1.813,-4.85207 c 0.8395,2.29667 1.6556,4.48077 1.813,4.85207 l 0.0921,-0.039 C 59.7946,11.0846 58.9796,8.90376 58.1395,6.60559 Z M 57.5082,1.86196 c -0.1365,0 -0.2584,0.00305 -0.3626,0.0178 -0.1041,0.01472 -0.1952,0.04169 -0.2671,0.09282 -0.1494,0.10617 -0.1939,0.29821 -0.1555,0.60842 0.0388,0.31225 0.164,0.76433 0.3813,1.4174 0.2176,0.65403 0.5288,1.51334 0.9413,2.64153 L 58.1395,6.60559 C 57.7269,5.47709 57.4162,4.61921 57.1992,3.96683 56.9818,3.3135 56.8596,2.86997 56.8223,2.56869 56.7847,2.26537 56.8353,2.12597 56.9364,2.05409 56.9897,2.01619 57.0627,1.99247 57.1596,1.97877 57.2562,1.96509 57.372,1.96196 57.5082,1.96196 Z M 57.9566,1.5668 c 0,0.12659 -0.0275,0.19181 -0.0841,0.23095 -0.0626,0.04338 -0.1726,0.06421 -0.3643,0.06421 v 0.1 c 0.1912,0 0.3304,-0.01911 0.4212,-0.082 0.097,-0.06713 0.1272,-0.17449 0.1272,-0.31316 z M 55.425,1.27164 c 1.2352,0 1.876,0.00396 2.209,0.04846 0.1682,0.02248 0.2446,0.05408 0.2812,0.08954 0.0331,0.03201 0.0414,0.07489 0.0414,0.15716 h 0.1 c 0,-0.08264 -0.0061,-0.16535 -0.0718,-0.22898 C 57.9227,1.27765 57.8162,1.24356 57.6472,1.22098 57.3058,1.17535 56.6559,1.17164 55.425,1.17164 Z M 52.9821,1.55413 C 52.9712,1.51238 52.9642,1.48043 52.9632,1.45421 52.9623,1.42925 52.9668,1.41349 52.9757,1.40119 52.9851,1.38807 53.0038,1.37263 53.0431,1.35762 53.0825,1.3426 53.1385,1.32949 53.2172,1.31858 53.5345,1.27462 54.1743,1.27164 55.425,1.27164 v -0.1 c -1.2459,0 -1.8954,0.00271 -2.2215,0.04789 -0.082,0.01136 -0.1465,0.02576 -0.196,0.04467 -0.0496,0.01892 -0.0881,0.04384 -0.1131,0.07872 -0.0256,0.03571 -0.0326,0.0756 -0.0311,0.11515 0.0015,0.03828 0.0111,0.07971 0.0221,0.1214 z M 88.083,1.96687 C 88.079,1.95774 88.0742,1.93718 88.0702,1.90596 88.0663,1.87641 88.0637,1.84221 88.062,1.80928 88.0602,1.77647 88.0593,1.74558 88.0589,1.72284 c -2e-4,-0.01135 -3e-4,-0.02062 -4e-4,-0.02703 0,-0.00321 0,-0.00569 0,-0.00736 0,-8.4e-4 0,-0.00147 0,-0.00188 0,-2.1e-4 0,-3.6e-4 0,-4.6e-4 0,-5e-5 0,-8e-5 0,-10e-5 0,-1e-5 0,-2e-5 0,-2e-5 0,0 0,0 0,-1e-5 0,1e-5 0,1e-5 -0.05,-4e-5 -0.05,-4e-5 -0.05,-4e-5 -0.05,-3e-5 0,0 0,1e-5 0,1e-5 0,10e-6 0,3e-5 0,5e-5 0,3e-5 0,9e-5 0,1.5e-4 0,1.3e-4 0,3.2e-4 0,5.6e-4 0,4.8e-4 0,0.00118 0,0.00209 0,0.00181 0,0.00445 0,0.00781 1e-4,0.00673 2e-4,0.01638 4e-4,0.02814 5e-4,0.02349 0.0014,0.05559 0.0032,0.08988 0.0018,0.03417 0.0046,0.07116 0.0089,0.10423 0.0041,0.03139 0.0101,0.06487 0.0206,0.08852 z m 0.1696,0.11042 c 0.0066,-0.04957 0.0066,-0.04957 0.0066,-0.04957 0,0 0,0 0,0 0,0 0,0 0,0 0,0 0,0 0,0 -1e-4,-1e-5 -2e-4,-2e-5 -3e-4,-4e-5 -3e-4,-4e-5 -7e-4,-1e-4 -0.0013,-1.8e-4 -0.0012,-1.7e-4 -0.003,-4.4e-4 -0.0054,-8e-4 C 88.2475,2.02596 88.2406,2.02482 88.2322,2.02326 88.2153,2.02011 88.1927,2.01532 88.1696,2.00871 88.1461,2.002 88.1239,1.99393 88.1068,1.98477 88.0983,1.98023 88.0921,1.97598 88.088,1.97232 88.0838,1.96861 88.0829,1.96663 88.083,1.96687 l -0.0914,0.04048 c 0.0142,0.03206 0.0437,0.05259 0.068,0.06559 0.026,0.01389 0.0558,0.02427 0.0825,0.03191 0.0271,0.00775 0.0529,0.0132 0.0718,0.01672 0.0095,0.00177 0.0174,0.00307 0.023,0.00394 0.0028,4.3e-4 0.005,7.6e-4 0.0065,9.8e-4 8e-4,1.1e-4 0.0014,2e-4 0.0019,2.6e-4 2e-4,3e-5 4e-4,5e-5 5e-4,7e-5 1e-4,1e-5 1e-4,2e-5 2e-4,2e-5 0,1e-5 0,1e-5 0,1e-5 0,0 0,0 0,0 1e-4,0 1e-4,1e-5 0.0066,-0.04956 z m 0.3415,0.03544 C 88.4902,2.087 88.3806,2.05988 88.2656,2.029 L 88.2397,2.12558 C 88.3558,2.15675 88.4662,2.1841 88.57,2.2098 Z m 1.0719,0.5932 C 89.5864,2.51959 89.4467,2.40329 89.2634,2.31785 89.0823,2.23344 88.8542,2.17715 88.5941,2.11273 L 88.57,2.2098 c 0.2633,0.0652 0.4808,0.11926 0.6512,0.19868 0.1681,0.07841 0.2857,0.17945 0.3529,0.33675 z m 0.1108,5.38618 C 89.7762,5.92872 89.7743,4.64456 89.7602,3.87228 89.7531,3.48626 89.743,3.22703 89.7283,3.04939 89.7137,2.87307 89.6943,2.772 89.666,2.70591 l -0.0919,0.03933 c 0.0214,0.04999 0.04,0.13686 0.0545,0.31241 0.0145,0.17423 0.0246,0.43076 0.0316,0.81646 0.0141,0.77115 0.016,2.05419 0.0166,4.21803 z m -0.1253,5.44229 c 0.0651,-0.1609 0.0954,-0.3861 0.1107,-1.1314 0.0153,-0.7485 0.0152,-2.0298 0.0146,-4.31089 l -0.1,3e-5 c 6e-4,2.28176 7e-4,3.56156 -0.0146,4.30876 -0.0154,0.7503 -0.0465,0.9554 -0.1034,1.096 z m -1.1426,0.7896 c 0.336,-0.0944 0.5818,-0.1927 0.7635,-0.3171 0.1834,-0.1257 0.2998,-0.2768 0.3791,-0.4725 l -0.0927,-0.0375 c -0.0722,0.1783 -0.1764,0.3134 -0.3429,0.4275 -0.1682,0.1152 -0.4016,0.21 -0.7341,0.3033 z m -0.355,0.1445 c 0.0138,-0.0128 0.0411,-0.029 0.0793,-0.0468 0.037,-0.0171 0.0798,-0.0337 0.121,-0.0484 0.0411,-0.0145 0.0798,-0.0269 0.1083,-0.0356 0.0142,-0.0044 0.0259,-0.0078 0.0339,-0.0101 0.004,-0.0012 0.0072,-0.0021 0.0093,-0.0027 10e-4,-3e-4 0.0018,-5e-4 0.0023,-7e-4 3e-4,0 5e-4,-10e-5 6e-4,-10e-5 0,0 1e-4,0 1e-4,-10e-5 0,0 0,0 0,0 0,0 0,0 0,0 0,0 0,0 -0.0134,-0.0481 -0.0134,-0.0482 -0.0134,-0.0482 -0.0134,-0.0482 0,0 0,0 0,0 0,0 0,0 0,0 -10e-5,0 -2e-4,10e-5 -2e-4,10e-5 -2e-4,0 -4e-4,10e-5 -7e-4,2e-4 -6e-4,10e-5 -0.0015,4e-4 -0.0027,7e-4 -0.0022,7e-4 -0.0055,0.0016 -0.0098,0.0028 -0.0084,0.0025 -0.0205,0.0061 -0.0353,0.0106 -0.0294,0.009 -0.0696,0.0218 -0.1124,0.037 -0.0427,0.0152 -0.0888,0.0329 -0.1297,0.0519 -0.0396,0.0184 -0.0791,0.04 -0.1051,0.064 z m -0.1286,0.2012 c 0.0498,0.0045 0.0498,0.0045 0.0498,0.0045 0,0 0,10e-5 0,10e-5 0,0 0,0 0,0 0,0 0,0 0,0 0,0 0,-10e-5 0,-2e-4 0,-2e-4 0,-5e-4 10e-5,-10e-4 1e-4,-10e-4 3e-4,-0.0025 5e-4,-0.0046 5e-4,-0.0041 0.0013,-0.0101 0.0025,-0.0177 0.0025,-0.0153 0.0065,-0.0363 0.0128,-0.0593 0.0131,-0.0483 0.0338,-0.0962 0.0629,-0.123 L 88.086,14.395 c -0.0506,0.0468 -0.0772,0.1178 -0.0915,0.1702 -0.0074,0.0272 -0.0121,0.0519 -0.015,0.0697 -0.0014,0.009 -0.0024,0.0163 -0.003,0.0215 -4e-4,0.0026 -6e-4,0.0047 -7e-4,0.0061 -1e-4,8e-4 -2e-4,0.0014 -2e-4,0.0018 -1e-4,2e-4 -1e-4,4e-4 -1e-4,5e-4 0,10e-5 0,10e-5 0,2e-4 0,0 0,0 0,1e-4 0,0 0,0 0,0 z m 0.0985,0.1917 c -0.0233,-0.025 -0.0371,-0.0685 -0.0437,-0.1135 -0.0031,-0.0213 -0.0043,-0.0407 -0.0048,-0.0548 -2e-4,-0.007 -2e-4,-0.0126 -2e-4,-0.0163 10e-5,-0.0018 10e-5,-0.0032 10e-5,-0.0041 0,-4e-4 0,-7e-4 0,-9e-4 0,-10e-5 0,-10e-5 0,-10e-5 0,0 0,0 0,0 0,0 0,0 0,0 0,0 0,0 0,0 0,0 0,0 -0.0499,-0.002 -0.05,-0.0021 -0.05,-0.0021 -0.05,-0.0021 0,0 0,0 0,10e-5 0,0 0,0 0,0 0,10e-5 0,10e-5 0,2e-4 0,10e-5 0,3e-4 0,5e-4 0,4e-4 0,10e-4 -1e-4,0.0017 0,0.0014 0,0.0034 -1e-4,0.0058 0,0.0049 0,0.0118 3e-4,0.0203 5e-4,0.0168 0.002,0.0402 0.0058,0.0662 0.0073,0.0496 0.0245,0.1189 0.0694,0.1672 z m 0.2135,0.0724 c -0.0094,-0.0491 -0.0094,-0.0491 -0.0094,-0.0491 0,0 0,0 0,0 0,0 0,0 1e-4,0 0,0 0,0 -1e-4,0 0,0 -1e-4,0 -2e-4,0 -2e-4,10e-5 -6e-4,10e-5 -0.0011,2e-4 -0.0011,2e-4 -0.0028,5e-4 -0.0051,9e-4 -0.0045,7e-4 -0.0112,0.0017 -0.0195,0.0026 -0.0167,0.002 -0.0394,0.0039 -0.0638,0.0037 -0.0246,-2e-4 -0.0492,-0.0025 -0.0704,-0.0081 -0.0216,-0.0057 -0.0358,-0.0137 -0.044,-0.0226 l -0.0732,0.0682 c 0.0258,0.0277 0.0599,0.0428 0.0917,0.0511 0.0321,0.0085 0.0657,0.0112 0.0951,0.0114 0.0297,2e-4 0.0567,-0.002 0.0763,-0.0043 0.0098,-0.0012 0.0178,-0.0024 0.0235,-0.0033 0.0029,-4e-4 0.0051,-8e-4 0.0068,-0.0011 8e-4,-10e-5 0.0014,-3e-4 0.0019,-3e-4 2e-4,-10e-5 4e-4,-10e-5 5e-4,-10e-5 1e-4,-10e-5 2e-4,-10e-5 2e-4,-10e-5 1e-4,0 1e-4,0 1e-4,0 0,0 0,0 0,0 0,0 1e-4,0 -0.0094,-0.0491 z m 1.7334,-0.0454 -1.7332,-0.0046 -3e-4,0.1 1.7332,0.0046 z m 2.8749,0.0232 -2.8746,-0.0232 -9e-4,0.1 2.8747,0.0232 z m 0.1386,-0.043 c -0.0194,0.0248 -0.0496,0.0368 -0.0804,0.0417 -0.0149,0.0023 -0.0285,0.0027 -0.0383,0.0025 -0.0048,-1e-4 -0.0086,-3e-4 -0.011,-5e-4 -0.0012,-10e-5 -0.0021,-2e-4 -0.0026,-2e-4 -2e-4,-10e-5 -3e-4,-10e-5 -4e-4,-10e-5 0,0 0,0 1e-4,0 0,0 0,0 1e-4,0 0,0 0,0 0,0 0,0 0,0 0,0 1e-4,0 1e-4,0 -0.0065,0.0496 -0.0065,0.0496 -0.0065,0.0496 -0.0065,0.0496 0,0 0,0 0,0 1e-4,0 1e-4,0 1e-4,0 1e-4,0 2e-4,0 2e-4,0 2e-4,10e-5 4e-4,10e-5 6e-4,10e-5 4e-4,0 9e-4,10e-5 0.0016,2e-4 0.0013,10e-5 0.003,3e-4 0.0051,5e-4 0.0042,3e-4 0.0101,7e-4 0.0172,8e-4 0.0142,3e-4 0.0338,-3e-4 0.0559,-0.0037 0.0432,-0.0069 0.1021,-0.026 0.1436,-0.0789 z m 0.0848,-0.1993 c -0.0498,0.005 -0.0498,0.005 -0.0498,0.005 0,0 0,0 0,0 0,0 0,0 0,0 0,0 0,-10e-5 0,0 0,0 0,0 0,10e-5 10e-5,2e-4 10e-5,5e-4 10e-5,9e-4 1e-4,9e-4 2e-4,0.0023 3e-4,0.0042 3e-4,0.0037 6e-4,0.0094 9e-4,0.0164 4e-4,0.0142 5e-4,0.0338 -0.0012,0.0554 -0.0036,0.0457 -0.0142,0.0906 -0.0351,0.1173 l 0.0788,0.0616 c 0.04,-0.051 0.0521,-0.1213 0.056,-0.1711 0.002,-0.0262 0.002,-0.0496 0.0014,-0.0664 -3e-4,-0.0085 -7e-4,-0.0154 -0.001,-0.0203 -2e-4,-0.0024 -3e-4,-0.0044 -5e-4,-0.0058 0,-6e-4 -1e-4,-0.0012 -1e-4,-0.0016 0,-2e-4 0,-4e-4 -1e-4,-5e-4 0,-10e-5 0,-2e-4 0,-2e-4 0,0 0,0 0,-1e-4 0,0 0,0 0,0 z m -0.1106,-0.2005 c 0.0263,0.0254 0.0429,0.0714 0.052,0.1191 0.0043,0.0226 0.0064,0.0433 0.0075,0.0583 6e-4,0.0075 8e-4,0.0135 10e-4,0.0175 0,0.002 0,0.0035 1e-4,0.0045 0,4e-4 0,8e-4 0,10e-4 0,0 0,10e-5 0,10e-5 0,0 0,0 0,0 0,0 0,0 0,0 0,0 0,0 0,0 0,0 0,0 0.05,0 0.05,0 0.05,-10e-5 0.05,-10e-5 0,0 0,0 0,0 0,0 0,0 0,-10e-5 0,0 0,-10e-5 0,-10e-5 0,-2e-4 0,-4e-4 0,-6e-4 0,-4e-4 0,-10e-4 0,-0.0018 -10e-5,-0.0014 -10e-5,-0.0035 -2e-4,-0.0061 -2e-4,-0.0052 -5e-4,-0.0125 -0.0011,-0.0215 -0.0013,-0.0178 -0.0039,-0.0424 -0.0091,-0.0697 -0.0098,-0.0521 -0.0311,-0.1244 -0.0806,-0.1723 z m -0.3346,-0.1782 c -0.0114,0.0487 -0.0114,0.0487 -0.0114,0.0487 0,0 0,0 0,0 0,0 0,0 0,0 1e-4,0 1e-4,0 2e-4,0 1e-4,10e-5 3e-4,10e-5 5e-4,2e-4 5e-4,1e-4 0.0013,3e-4 0.0023,5e-4 0.0021,5e-4 0.0052,0.0013 0.0092,0.0023 0.0079,0.0019 0.0194,0.0048 0.0335,0.0086 0.0282,0.0074 0.0664,0.0181 0.1069,0.031 0.0405,0.0129 0.0825,0.0278 0.1185,0.0435 0.0374,0.0165 0.0628,0.0316 0.0749,0.0434 L 93.128,14.397 C 93.1023,14.372 93.0626,14.351 93.0237,14.3339 92.9832,14.3161 92.9376,14.3 92.8953,14.2866 92.8528,14.2731 92.8129,14.2619 92.7837,14.2542 92.769,14.2503 92.757,14.2473 92.7486,14.2452 c -0.0042,-0.0011 -0.0075,-0.0019 -0.0098,-0.0024 -0.0011,-3e-4 -0.002,-5e-4 -0.0026,-6e-4 -3e-4,-10e-5 -5e-4,-2e-4 -7e-4,-2e-4 -1e-4,0 -1e-4,0 -2e-4,0 0,0 0,-1e-4 0,-1e-4 0,0 -10e-5,0 -10e-5,0 z m -1.1755,-0.6861 c 0.1572,0.3606 0.5109,0.5741 1.1636,0.7347 l 0.0239,-0.0971 C 92.09,14.0831 91.7775,13.8801 91.64,13.5646 Z m -0.1418,-2.3618 c 0.0083,0.706 0.0153,1.2299 0.034,1.6087 0.0094,0.1894 0.0217,0.3435 0.0388,0.4667 0.0169,0.1225 0.0389,0.2173 0.069,0.2864 L 91.64,13.5646 C 91.6154,13.508 91.5949,13.4239 91.5783,13.3044 91.5619,13.1855 91.5497,13.0346 91.5404,12.8464 91.5218,12.47 91.5148,11.9483 91.5065,11.2415 Z m 0,-2.07194 v 2.07134 h 0.1 V 9.17076 Z m 0.2876,0.0954 c -0.0697,-0.0488 -0.138,-0.09663 -0.213,-0.13895 l -0.0491,0.0871 c 0.07,0.03954 0.1344,0.08453 0.2048,0.13379 z m 2.2692,0.55805 C 93.1909,9.80186 92.7046,9.7184 92.3717,9.61311 92.0401,9.50826 91.8586,9.38121 91.6941,9.26616 L 91.6368,9.3481 c 0.167,0.11681 0.3585,0.25086 0.7048,0.36036 0.3448,0.10906 0.8411,0.1932 1.6188,0.21571 z M 97.6,8.09401 c -0.6633,0.9582 -1.7777,1.78401 -3.6367,1.7302 l -0.0029,0.09996 c 1.8966,0.0549 3.0415,-0.79046 3.7219,-1.77325 z M 98.0329,4.01755 C 98.522,5.62952 98.2619,7.13794 97.6,8.09401 l 0.0823,0.05691 C 98.3641,7.16599 98.6252,5.625 98.1286,3.98851 Z M 94.1057,1.3442 c 2.0178,0.10083 3.4419,1.07413 3.9272,2.67335 L 98.1286,3.98851 C 97.6281,2.33924 96.1596,1.34671 94.1107,1.24433 Z M 90.6468,1.38265 C 91.5086,1.34354 93.0485,1.29137 94.1057,1.3442 l 0.005,-0.09987 C 93.0481,1.19123 91.5039,1.24365 90.6422,1.28275 Z M 90.4053,1.39348 90.6468,1.38265 90.6423,1.28275 90.4008,1.29358 Z M 88.219,1.5468 C 88.6859,1.50238 89.6233,1.4276 90.4052,1.39348 L 90.4009,1.29357 C 89.6168,1.32778 88.6777,1.40272 88.2095,1.44725 Z M 88.2177,1.54692 88.219,1.5468 88.2095,1.44725 88.2082,1.44737 Z M 88.0768,1.58655 C 88.0922,1.56703 88.0965,1.56464 88.106,1.56164 88.123,1.55623 88.151,1.55327 88.2177,1.54692 L 88.2082,1.44737 c -0.0606,0.00576 -0.1025,0.00945 -0.1325,0.01896 -0.0376,0.01193 -0.0573,0.03273 -0.0775,0.05839 z m -0.0683,0.09939 c 0.0498,-0.0039 0.0498,-0.00389 0.0498,-0.00388 0,10e-6 0,2e-5 0,2e-5 1e-4,2e-5 1e-4,3e-5 1e-4,4e-5 0,2e-5 0,3e-5 0,4e-5 0,2e-5 0,2e-5 0,0 0,-3e-5 -1e-4,-1.5e-4 -1e-4,-3.3e-4 0,-3.7e-4 0,-0.00103 -1e-4,-0.00195 -1e-4,-0.00184 -2e-4,-0.00468 -2e-4,-0.0083 0,-0.00731 2e-4,-0.01744 0.0014,-0.02862 0.0025,-0.02449 0.0086,-0.04522 0.0174,-0.05641 L 87.9982,1.52472 c -0.0268,0.03415 -0.0353,0.07857 -0.0383,0.1079 -0.0016,0.01573 -0.002,0.02968 -0.0019,0.03972 1e-4,0.00505 2e-4,0.0092 3e-4,0.01219 1e-4,0.00149 2e-4,0.00271 2e-4,0.0036 1e-4,4.5e-4 1e-4,8.2e-4 1e-4,0.00111 0,1.4e-4 0,2.6e-4 0,3.6e-4 0,6e-5 0,10e-5 0,1.4e-4 0,2e-5 0,4e-5 0,6e-5 0,1e-5 0,2e-5 0,2e-5 10e-5,2e-5 10e-5,3e-5 0.0499,-0.00388 z m 8.3491,3.83205 c 0,0.71328 -0.0147,1.80093 -0.7521,2.49407 l 0.0685,0.07287 c 0.7734,-0.72707 0.7836,-1.861 0.7836,-2.56694 z m -3.0121,-3.2025 c 1.2528,0 1.984,0.5263 2.4137,1.18628 0.4319,0.6634 0.5617,1.46635 0.5985,2.01954 L 96.4575,5.51466 C 96.4202,4.95518 96.2887,4.13189 95.843,3.44721 95.395,2.75911 94.6324,2.21549 93.3455,2.21549 Z m -1.7922,0.84766 c 0.0155,-0.38021 0.3016,-0.60021 0.6766,-0.72263 0.374,-0.1221 0.8193,-0.14019 1.1131,-0.12509 l 0.0051,-0.09987 c -0.3,-0.01541 -0.759,0.00248 -1.1492,0.1299 -0.3893,0.1271 -0.7274,0.37017 -0.7455,0.81361 z M 91.5095,5.88604 C 91.5048,5.10523 91.5066,4.4607 91.5141,3.99335 91.5178,3.75963 91.523,3.57053 91.5296,3.43099 91.5362,3.28892 91.5441,3.20379 91.5518,3.17339 L 91.4549,3.14882 c -0.0108,0.04236 -0.0187,0.139 -0.0252,0.27749 -0.0066,0.14102 -0.0119,0.33127 -0.0156,0.56543 -0.0076,0.46839 -0.0093,1.11374 -0.0046,1.89491 z m 0.015,2.493 -0.015,-2.49299 -0.1,6e-4 0.015,2.493 z m 0.2318,0.09222 -0.2585,-0.13615 -0.0466,0.08847 0.2585,0.13615 z m 0.014,0.00738 -0.014,-0.00736 -0.0466,0.08843 0.0139,0.00737 z M 92.397,8.70627 C 92.0859,8.64535 91.909,8.55187 91.7703,8.47864 l -0.0467,0.08843 c 0.1418,0.07489 0.3289,0.17364 0.6542,0.23733 z M 95.6055,8.01206 C 95.2373,8.35817 94.6869,8.58153 94.0996,8.69323 93.5128,8.8048 92.8951,8.8038 92.397,8.70627 L 92.3778,8.8044 c 0.5116,0.10019 1.1423,0.10082 1.7404,-0.01293 0.5976,-0.11363 1.1685,-0.34254 1.5558,-0.70654 z M 80.0619,1.32045 C 80.044,1.27377 80.044,1.27377 80.044,1.27377 c 0,0 0,0 0,0 0,0 0,10e-6 0,10e-6 -1e-4,0 -1e-4,1e-5 -1e-4,2e-5 -10e-5,3e-5 -2e-4,6e-5 -3e-4,1.1e-4 -2e-4,9e-5 -6e-4,2.3e-4 -0.001,4.1e-4 -10e-4,3.6e-4 -0.0024,9.1e-4 -0.0043,0.00163 -0.0037,0.00144 -0.0093,0.00357 -0.0166,0.00636 -0.0145,0.00557 -0.0359,0.01374 -0.0631,0.02414 -0.0545,0.0208 -0.1325,0.05051 -0.2265,0.08613 l 0.0354,0.09351 c 0.0941,-0.03566 0.1722,-0.06539 0.2267,-0.08622 0.0273,-0.01041 0.0487,-0.0186 0.0633,-0.02418 0.0073,-0.00279 0.0129,-0.00493 0.0166,-0.00637 0.0019,-7.3e-4 0.0033,-0.00127 0.0043,-0.00164 5e-4,-1.9e-4 8e-4,-3.2e-4 0.0011,-4.2e-4 1e-4,-4e-5 2e-4,-8e-5 2e-4,-10e-5 1e-4,-10e-6 1e-4,-2e-5 1e-4,-3e-5 0,0 0,0 0,-1e-5 0,0 0,0 0,0 z M 80.4731,1.28956 C 80.4395,1.2468 80.3906,1.2286 80.3443,1.22218 80.2979,1.21576 80.2485,1.22022 80.2051,1.22789 80.1613,1.23564 80.121,1.24717 80.0918,1.25665 c -0.0147,0.00476 -0.0267,0.00906 -0.0351,0.01221 -0.0042,0.00158 -0.0076,0.00286 -0.0099,0.00378 -0.0012,4.6e-4 -0.0021,8.3e-4 -0.0027,0.00109 -4e-4,1.3e-4 -6e-4,2.4e-4 -8e-4,3.2e-4 -1e-4,4e-5 -2e-4,7e-5 -3e-4,9e-5 0,2e-5 0,3e-5 0,4e-5 -1e-4,0 -1e-4,10e-6 -1e-4,10e-6 0,0 0,1e-5 0.019,0.04626 0.019,0.04624 0.019,0.04625 0.019,0.04625 0,0 0,0 0,1e-5 0,0 0,0 0,0 0,0 0,-1e-5 0,-3e-5 1e-4,-3e-5 3e-4,-9e-5 5e-4,-1.7e-4 4e-4,-1.7e-4 0.0011,-4.4e-4 0.002,-8e-4 0.0018,-7.2e-4 0.0046,-0.0018 0.0082,-0.00315 0.0073,-0.00272 0.018,-0.00655 0.0311,-0.01081 0.0264,-0.00857 0.062,-0.0187 0.0998,-0.02539 0.0383,-0.00677 0.0762,-0.00954 0.108,-0.00513 0.0319,0.00441 0.0522,0.0151 0.064,0.0301 z M 80.863,2.25312 C 80.7367,1.92721 80.6479,1.69812 80.5873,1.5461 80.5569,1.47014 80.5334,1.41291 80.5156,1.37228 80.5068,1.35198 80.4991,1.33534 80.4926,1.32235 80.4866,1.31033 80.48,1.29832 80.4731,1.28956 l -0.0786,0.06178 c -3e-4,-4e-4 4e-4,4.6e-4 0.0022,0.00357 0.0017,0.0029 0.0038,0.00691 0.0065,0.01228 0.0054,0.01076 0.0123,0.0256 0.0208,0.04517 0.0171,0.03908 0.0401,0.09505 0.0704,0.17081 0.0604,0.15143 0.149,0.37992 0.2753,0.70608 z m 0.1667,0.42986 C 80.9679,2.52392 80.9126,2.38104 80.863,2.25312 l -0.0933,0.03613 c 0.0496,0.12792 0.105,0.27083 0.1667,0.42992 z M 82.2317,5.777 C 81.9471,5.04527 81.4062,3.65297 81.0297,2.68299 l -0.0933,0.03618 c 0.3766,0.97 0.9175,2.36233 1.2022,3.09409 z m 1.2511,3.21783 C 83.0793,7.95677 82.5164,6.50875 82.2317,5.777 l -0.0931,0.03625 c 0.2846,0.73174 0.8475,2.17975 1.251,3.2178 z m 1.1507,2.95927 C 84.4041,11.3646 83.8862,10.0329 83.4828,8.99483 l -0.0932,0.03622 c 0.4034,1.03805 0.9213,2.36975 1.1507,2.95935 z m 0.5985,1.303 C 85.2142,13.2327 85.1821,13.1768 85.1393,13.094 85.0971,13.0124 85.0459,12.9075 84.99,12.7875 84.8781,12.5474 84.7479,12.2477 84.6335,11.9541 l -0.0931,0.0363 c 0.1152,0.2959 0.2463,0.5975 0.3589,0.8393 0.0563,0.1209 0.1082,0.2271 0.1512,0.3103 0.0424,0.082 0.0778,0.1446 0.1009,0.1762 z m 0.1291,0.2017 c -0.0448,-0.0743 -0.0872,-0.1447 -0.129,-0.2017 l -0.0807,0.0591 c 0.0386,0.0527 0.0786,0.1188 0.1241,0.1942 z m 0.8575,0.7411 c -0.4514,-0.0728 -0.6785,-0.4446 -0.8575,-0.7411 l -0.0856,0.0516 c 0.1754,0.2906 0.4238,0.707 0.9272,0.7882 z m 0.4576,0.1355 C 86.6626,14.321 86.6437,14.3104 86.6268,14.3025 86.6087,14.294 86.5875,14.286 86.565,14.2787 86.52,14.2639 86.4664,14.2503 86.4156,14.2388 c -0.051,-0.0116 -0.1002,-0.0213 -0.1365,-0.0281 -0.0181,-0.0034 -0.0332,-0.0061 -0.0437,-0.0079 -0.0052,-9e-4 -0.0093,-0.0016 -0.0122,-0.0021 -0.0014,-3e-4 -0.0025,-4e-4 -0.0032,-6e-4 -4e-4,0 -7e-4,-1e-4 -9e-4,-1e-4 -1e-4,0 -1e-4,0 -2e-4,0 0,0 0,-10e-5 0,-10e-5 -1e-4,0 -1e-4,0 -1e-4,0 0,0 0,0 -0.0081,0.0494 -0.0082,0.0493 -0.0082,0.0493 -0.0082,0.0493 0,0 0,0 0,0 0,0 0,0 0,0 1e-4,0 1e-4,0 2e-4,0 2e-4,10e-5 4e-4,10e-5 8e-4,2e-4 6e-4,10e-5 0.0017,2e-4 0.003,5e-4 0.0027,4e-4 0.0066,0.0011 0.0117,0.002 0.0102,0.0018 0.0248,0.0044 0.0426,0.0077 0.0355,0.0066 0.0833,0.0161 0.1326,0.0273 0.0496,0.0112 0.0998,0.0241 0.1405,0.0374 0.0203,0.0067 0.0374,0.0132 0.0503,0.0193 0.0065,0.003 0.0114,0.0057 0.0149,0.0079 0.0037,0.0024 0.0048,0.0035 0.0044,0.0032 z m 0.0316,0.1994 c 0.0497,-0.0059 0.0497,-0.0059 0.0497,-0.0059 0,0 0,-10e-5 0,-10e-5 0,0 0,0 0,0 -10e-5,-10e-5 -10e-5,-10e-5 -10e-5,-2e-4 0,-1e-4 0,-2e-4 0,-4e-4 -1e-4,-3e-4 -1e-4,-7e-4 -2e-4,-0.0012 -1e-4,-0.0011 -3e-4,-0.0025 -6e-4,-0.0043 -5e-4,-0.0036 -0.0013,-0.0086 -0.0025,-0.0147 -0.0023,-0.0122 -0.0059,-0.029 -0.0116,-0.048 -0.0108,-0.0366 -0.0306,-0.0868 -0.0663,-0.1246 l -0.0727,0.0687 c 0.0196,0.0208 0.0339,0.0531 0.0432,0.0843 0.0044,0.015 0.0073,0.0284 0.0091,0.038 9e-4,0.0048 0.0015,0.0086 0.0019,0.0111 2e-4,0.0012 3e-4,0.0021 4e-4,0.0027 0,2e-4 10e-5,4e-4 10e-5,5e-4 0,0 0,0 0,0 0,0 0,0 0,0 0,0 0,0 0,0 0,0 0,0 0,0 0,0 0,-10e-5 0.0496,-0.0059 z m 0.05,0.2 v -0.2 h -0.1 v 0.2 z m -0.0463,0.1235 c 0.0195,-0.0277 0.0308,-0.0568 0.0372,-0.0782 0.0032,-0.0109 0.0054,-0.0202 0.0067,-0.027 7e-4,-0.0034 0.0011,-0.0062 0.0015,-0.0083 1e-4,-10e-4 3e-4,-0.0019 3e-4,-0.0025 1e-4,-3e-4 1e-4,-6e-4 2e-4,-8e-4 0,-2e-4 0,-3e-4 0,-3e-4 0,-10e-5 0,-10e-5 0,-2e-4 0,0 0,0 0,0 0,0 0,0 0,0 0,-10e-5 0,-10e-5 -0.0496,-0.0062 -0.0496,-0.0062 -0.0496,-0.0062 -0.0496,-0.0062 0,0 0,-10e-5 0,-10e-5 0,0 0,0 0,0 0,0 0,0 0,-10e-5 0,0 0,0 0,-10e-5 0,0 0,0 0,10e-5 0,10e-5 0,4e-4 -10e-5,8e-4 -2e-4,10e-4 -4e-4,0.0025 -8e-4,0.0046 -8e-4,0.0041 -0.0022,0.0103 -0.0044,0.0177 -0.0045,0.015 -0.0118,0.0331 -0.023,0.049 z m -0.1846,0.0024 c -0.0053,0.0497 -0.0053,0.0497 -0.0053,0.0497 0,0 0,0 0,1e-4 0,0 10e-5,0 10e-5,0 0,0 1e-4,0 1e-4,0 1e-4,0 3e-4,0 4e-4,0 4e-4,0 8e-4,10e-5 0.0013,10e-5 0.0011,10e-5 0.0026,3e-4 0.0044,4e-4 0.0037,3e-4 0.0089,6e-4 0.0151,9e-4 0.0123,5e-4 0.0295,7e-4 0.048,-7e-4 0.0182,-0.0014 0.0397,-0.0044 0.06,-0.0112 0.0197,-0.0065 0.044,-0.0185 0.0605,-0.0417 l -0.0816,-0.0578 c 0.0011,-0.0016 -3e-4,0.0012 -0.0105,0.0047 -0.0095,0.0031 -0.022,0.0052 -0.0359,0.0063 -0.0136,10e-4 -0.0266,9e-4 -0.0364,5e-4 -0.0049,-2e-4 -0.0088,-5e-4 -0.0114,-7e-4 -0.0013,-10e-5 -0.0023,-2e-4 -0.0029,-2e-4 -3e-4,-10e-5 -5e-4,-10e-5 -6e-4,-10e-5 -1e-4,0 -1e-4,0 -1e-4,0 0,0 0,0 0,0 0,0 0,0 1e-4,0 0,0 0,0 0,0 z m -2.8823,0.0502 2.8823,-2e-4 v -0.1 l -2.8823,2e-4 z m -2.0501,0.0148 2.0505,-0.0148 -7e-4,-0.1 -2.0505,0.0148 z M 81.4484,14.888 c 0.0326,0.0269 0.073,0.0349 0.1,0.0375 0.0142,0.0013 0.0267,0.0013 0.0357,0.001 0.0046,-2e-4 0.0083,-5e-4 0.011,-7e-4 0.0014,-10e-5 0.0025,-2e-4 0.0034,-3e-4 4e-4,0 8e-4,-10e-5 0.001,-10e-5 2e-4,0 3e-4,0 4e-4,-10e-5 10e-5,0 10e-5,0 2e-4,0 0,0 0,0 0,0 0,0 1e-4,0 1e-4,0 0,0 0,0 -0.0061,-0.0496 -0.006,-0.0497 -0.006,-0.0497 -0.006,-0.0497 0,0 0,0 0,0 0,0 0,0 1e-4,0 0,0 0,0 0,0 1e-4,0 1e-4,0 1e-4,0 0,0 0,0 -2e-4,0 -2e-4,10e-5 -6e-4,10e-5 -0.0013,2e-4 -0.0014,10e-5 -0.0035,2e-4 -0.0064,3e-4 -0.0057,2e-4 -0.0137,2e-4 -0.0227,-6e-4 -0.0194,-0.0018 -0.0359,-0.0069 -0.0456,-0.015 z m -0.0323,-0.1617 c -0.0486,0.0121 -0.0486,0.0121 -0.0486,0.0121 0,0 10e-5,0 10e-5,0 0,0 0,0 0,0 0,10e-5 0,10e-5 0,2e-4 0,0 0,2e-4 1e-4,3e-4 0,2e-4 1e-4,6e-4 2e-4,0.001 3e-4,9e-4 6e-4,0.0021 10e-4,0.0035 8e-4,0.0029 0.0019,0.007 0.0035,0.0119 0.003,0.0099 0.0075,0.0235 0.0136,0.0384 0.0112,0.0275 0.0311,0.0684 0.0624,0.0943 l 0.0637,-0.0771 c -0.0109,-0.009 -0.0231,-0.0296 -0.0335,-0.055 -0.0047,-0.0115 -0.0083,-0.0222 -0.0107,-0.03 -0.0012,-0.0039 -0.002,-0.0069 -0.0026,-0.009 -3e-4,-0.001 -5e-4,-0.0018 -6e-4,-0.0022 -10e-5,-3e-4 -10e-5,-4e-4 -10e-5,-5e-4 0,0 0,0 0,0 0,0 0,0 0,0 0,0 0,0 0,0 0,0 0,0 0,0 z m -0.05,-0.1507 v 0.1507 h 0.1 v -0.1507 z m 0.0757,-0.2437 c -0.0483,0.0581 -0.0671,0.1205 -0.0738,0.1677 -0.0034,0.0237 -0.0038,0.0438 -0.0034,0.0584 2e-4,0.0073 7e-4,0.0132 0.0011,0.0175 2e-4,0.0021 4e-4,0.0039 6e-4,0.0052 1e-4,7e-4 2e-4,0.0012 2e-4,0.0017 1e-4,2e-4 1e-4,4e-4 1e-4,6e-4 0,0 0,10e-5 0,2e-4 0,0 10e-5,0 10e-5,10e-5 0,0 0,0 0,0 0,0 0,10e-5 0.0494,-0.0077 0.0494,-0.0077 0.0494,-0.0077 0.0494,-0.0076 0,0 0,0 0,0 0,0 0,0 0,10e-5 0,0 0,0 0,10e-5 0,0 0,1e-4 0,1e-4 0,0 0,-1e-4 0,-3e-4 -1e-4,-4e-4 -2e-4,-0.0012 -3e-4,-0.0023 -2e-4,-0.0023 -5e-4,-0.006 -6e-4,-0.0109 -3e-4,-0.0097 -1e-4,-0.024 0.0024,-0.041 0.0048,-0.0341 0.0181,-0.0776 0.0517,-0.118 z m 0.4497,-0.078 c -0.0017,-0.05 -0.0017,-0.05 -0.0017,-0.05 0,0 0,0 0,0 -10e-5,0 -10e-5,0 -10e-5,0 -1e-4,0 -1e-4,0 -2e-4,0 -2e-4,0 -5e-4,0 -9e-4,0 -7e-4,10e-5 -0.0017,10e-5 -0.003,2e-4 -0.0026,10e-5 -0.0063,3e-4 -0.0111,5e-4 -0.0096,6e-4 -0.0232,0.0014 -0.0397,0.0028 -0.0331,0.0026 -0.0782,0.0073 -0.1263,0.0152 -0.0477,0.0078 -0.0998,0.019 -0.146,0.0353 -0.0447,0.0157 -0.0913,0.0386 -0.1207,0.074 l 0.0769,0.0639 c 0.0116,-0.0139 0.0368,-0.0294 0.077,-0.0435 0.0385,-0.0136 0.0842,-0.0237 0.129,-0.0311 0.0446,-0.0073 0.0869,-0.0116 0.1182,-0.0142 0.0155,-0.0012 0.0283,-0.002 0.0371,-0.0025 0.0044,-3e-4 0.0078,-4e-4 0.01,-5e-4 0.0012,-10e-5 0.002,-10e-5 0.0026,-10e-5 2e-4,0 4e-4,-10e-5 6e-4,-10e-5 0,0 1e-4,0 1e-4,0 0,0 0,0 0,0 0,0 0,0 0,0 z m 0.9486,-0.876 c -0.1281,0.275 -0.364,0.7751 -0.9529,0.8262 l 0.0087,0.0996 c 0.6524,-0.0566 0.9093,-0.6142 1.0349,-0.8836 z m 0.0268,-0.0569 c -0.0084,0.0174 -0.0173,0.0366 -0.0268,0.0568 l 0.0907,0.0423 c 0.0095,-0.0204 0.0181,-0.039 0.0262,-0.0558 z m -0.5256,-1.9286 c 0.3058,0.7534 0.4692,1.1719 0.5399,1.4372 0.0351,0.132 0.0462,0.2224 0.0418,0.2951 -0.0044,0.0717 -0.024,0.1294 -0.0561,0.1963 l 0.0901,0.0433 c 0.0355,-0.0738 0.0604,-0.1446 0.0658,-0.2335 0.0054,-0.0878 -0.0085,-0.1899 -0.045,-0.327 -0.0727,-0.2728 -0.239,-0.6981 -0.5439,-1.449 z M 81.737,10.1257 c 0.0066,0.0016 0.0247,0.0111 0.0563,0.0544 0.0304,0.0416 0.0678,0.1067 0.1159,0.2044 0.0961,0.195 0.2305,0.5113 0.4321,1.0079 l 0.0926,-0.0376 c -0.2014,-0.4962 -0.3371,-0.8157 -0.435,-1.0145 -0.0488,-0.0992 -0.0893,-0.1705 -0.1248,-0.2192 -0.0343,-0.0469 -0.0702,-0.0817 -0.1126,-0.0924 z m -2.3712,-0.0128 c 0.6211,-0.0047 1.1996,-0.0055 1.6314,-0.0029 0.2159,0.0013 0.395,0.0034 0.5242,0.0063 0.0647,0.0014 0.1166,0.0031 0.1543,0.0049 0.0189,9e-4 0.0339,0.0018 0.0449,0.0027 0.0124,10e-4 0.0167,0.0018 0.0164,0.0018 l 0.0245,-0.097 c -0.0088,-0.0022 -0.021,-0.0035 -0.0325,-0.0044 -0.0128,-0.0011 -0.0291,-0.0021 -0.0486,-0.003 -0.0389,-0.0019 -0.0918,-0.0035 -0.1567,-0.005 -0.1301,-0.0029 -0.3097,-0.005 -0.5259,-0.0063 -0.4323,-0.0026 -1.0114,-0.0018 -1.6328,0.0029 z m -2.2588,0.0172 2.2588,-0.0172 -7e-4,-0.1 -2.2589,0.0172 z m -0.0885,0.3384 0.1351,-0.3713 -0.094,-0.0342 -0.1351,0.3713 z m -0.7876,2.4211 c 0.0254,-0.1402 0.124,-0.4756 0.2664,-0.9135 0.1419,-0.4364 0.326,-0.9711 0.5212,-1.5076 l -0.094,-0.0342 c -0.1955,0.5375 -0.3801,1.0732 -0.5223,1.5108 -0.1418,0.4362 -0.2428,0.7784 -0.2697,0.9267 z m 0.8624,1.2946 c -0.4181,-0.0549 -0.6554,-0.2386 -0.7784,-0.4727 -0.1245,-0.2371 -0.1362,-0.5344 -0.084,-0.8219 l -0.0984,-0.0178 c -0.0543,0.2993 -0.045,0.6218 0.0939,0.8862 0.1404,0.2674 0.4089,0.4669 0.8538,0.5254 z m 0.429,0.1181 c -0.0288,-0.0216 -0.072,-0.0385 -0.1145,-0.0519 -0.0442,-0.0138 -0.0939,-0.0257 -0.1401,-0.0354 -0.0463,-0.0098 -0.0897,-0.0174 -0.1215,-0.0226 -0.016,-0.0026 -0.029,-0.0047 -0.0382,-0.006 -0.0045,-7e-4 -0.0081,-0.0012 -0.0106,-0.0016 -0.0012,-10e-5 -0.0021,-3e-4 -0.0028,-4e-4 -3e-4,0 -6e-4,0 -7e-4,-10e-5 -1e-4,0 -2e-4,0 -2e-4,0 -1e-4,0 -1e-4,0 -1e-4,0 0,0 0,0 0,0 0,0 0,0 -0.0068,0.0495 -0.0069,0.0496 -0.0069,0.0496 -0.0069,0.0496 0,0 0,0 0,0 0,0 1e-4,0 1e-4,0 0,0 0,0 1e-4,0 1e-4,0 3e-4,0 6e-4,10e-5 6e-4,0 0.0015,2e-4 0.0026,3e-4 0.0023,4e-4 0.0056,8e-4 0.01,0.0015 0.0087,0.0013 0.0213,0.0032 0.0367,0.0058 0.0309,0.005 0.0728,0.0124 0.1172,0.0217 0.0445,0.0094 0.0908,0.0205 0.1306,0.033 0.0415,0.0131 0.0703,0.0259 0.0842,0.0364 z m 0.0852,0.2694 c 0.0492,-0.0089 0.0492,-0.0089 0.0492,-0.0089 0,0 -1e-4,0 -1e-4,-10e-5 0,0 0,0 0,0 0,-10e-5 0,-10e-5 0,-2e-4 0,-10e-5 -1e-4,-3e-4 -1e-4,-5e-4 -10e-5,-5e-4 -2e-4,-10e-4 -3e-4,-0.0018 -3e-4,-0.0014 -7e-4,-0.0035 -0.0013,-0.0061 -0.0011,-0.0052 -0.0027,-0.0125 -0.005,-0.0214 -0.0044,-0.0177 -0.0113,-0.0421 -0.0212,-0.0688 -0.0188,-0.0511 -0.0517,-0.1202 -0.1064,-0.1616 l -0.0603,0.0799 c 0.0306,0.0231 0.0554,0.0687 0.0729,0.1162 0.0083,0.0226 0.0142,0.0435 0.0181,0.0587 0.0019,0.0076 0.0032,0.0137 0.0041,0.0178 4e-4,0.002 7e-4,0.0036 9e-4,0.0046 10e-5,5e-4 2e-4,8e-4 2e-4,0.001 1e-4,10e-5 1e-4,2e-4 1e-4,2e-4 0,0 0,0 0,0 0,0 0,0 0,0 0,0 0,0 0,0 0,0 0,-10e-5 0.0492,-0.009 z m 0.05,0.1521 v -0.1521 h -0.1 v 0.1521 z m -0.0931,0.1596 c 0.0368,-0.0305 0.0594,-0.0676 0.0728,-0.096 0.0068,-0.0143 0.0114,-0.0269 0.0144,-0.0361 0.0015,-0.0046 0.0026,-0.0085 0.0033,-0.0113 4e-4,-0.0014 7e-4,-0.0025 9e-4,-0.0034 1e-4,-5e-4 2e-4,-8e-4 3e-4,-0.0011 0,-2e-4 1e-4,-3e-4 1e-4,-4e-4 0,-10e-5 0,-10e-5 0,-2e-4 0,0 0,0 0,-10e-5 0,0 0,0 0,0 0,0 0,0 -0.0487,-0.011 -0.0488,-0.0109 -0.0488,-0.011 -0.0488,-0.011 0,0 0,0 0,0 0,0 0,0 0,0 0,-10e-5 0,-10e-5 0,-10e-5 0,-10e-5 0,-10e-5 0,-10e-5 0,0 0,0 0,10e-5 0,2e-4 -1e-4,6e-4 -3e-4,0.0013 -4e-4,0.0013 -0.001,0.0036 -0.002,0.0065 -0.0019,0.0059 -0.005,0.0144 -0.0096,0.0243 -0.0095,0.02 -0.0243,0.0434 -0.0463,0.0616 z m -0.2432,-0.0075 c -0.0057,0.0497 -0.0057,0.0497 -0.0057,0.0497 0,0 0,0 0,0 0,0 0,0 1e-4,0 0,0 1e-4,0 1e-4,0 10e-5,0 3e-4,0 5e-4,1e-4 4e-4,0 9e-4,10e-5 0.0016,10e-5 0.0013,2e-4 0.0032,4e-4 0.0056,6e-4 0.0047,4e-4 0.0114,9e-4 0.0196,0.0014 0.0163,0.001 0.0389,0.0018 0.0636,9e-4 0.0246,-9e-4 0.0526,-0.0035 0.0793,-0.0097 0.026,-0.0059 0.0552,-0.0163 0.0785,-0.0356 l -0.0639,-0.077 c -0.0061,0.0051 -0.0179,0.0108 -0.037,0.0152 -0.0184,0.0042 -0.0396,0.0064 -0.0605,0.0071 -0.0207,8e-4 -0.0399,10e-5 -0.0541,-7e-4 -0.007,-4e-4 -0.0126,-9e-4 -0.0165,-0.0012 -0.0019,-2e-4 -0.0033,-3e-4 -0.0042,-4e-4 -5e-4,-10e-5 -8e-4,-10e-5 -10e-4,-10e-5 -1e-4,0 -2e-4,-10e-5 -2e-4,-10e-5 0,0 0,0 0,0 0,0 0,0 0,0 0,0 0,0 0,0 z m -2.1559,0.05 h 2.1559 v -0.1 h -2.1559 z m -2.0853,0.0237 2.0858,-0.0237 -0.0011,-0.1 -2.0858,0.0237 z m -0.1788,-0.0428 c 0.0399,0.0212 0.0848,0.0316 0.1176,0.0368 0.0168,0.0027 0.0314,0.0042 0.0418,0.005 0.0052,4e-4 0.0095,7e-4 0.0125,8e-4 0.0015,10e-5 0.0027,10e-5 0.0036,2e-4 4e-4,0 8e-4,0 10e-4,0 2e-4,0 3e-4,0 4e-4,0 0,0 10e-5,0 10e-5,0 0,0 0,0 1e-4,0 0,0 0,0 0,0 0,0 0,0 0.0012,-0.05 0.0011,-0.0499 0.0011,-0.0499 0.0012,-0.0499 0,0 0,0 0,0 0,0 0,0 0,0 0,0 0,0 0,0 0,0 0,0 0,0 -10e-5,0 -2e-4,-10e-5 -5e-4,-10e-5 -4e-4,0 -0.0012,0 -0.0023,-10e-5 -0.0021,-1e-4 -0.0053,-2e-4 -0.0094,-6e-4 -0.0084,-6e-4 -0.0202,-0.0018 -0.0339,-0.004 -0.0281,-0.0045 -0.0607,-0.0127 -0.0866,-0.0264 z m -0.0529,-0.1491 c -0.0495,0.0075 -0.0495,0.0075 -0.0495,0.0075 0,0 1e-4,10e-5 1e-4,10e-5 0,0 0,0 0,10e-5 0,0 0,10e-5 0,2e-4 0,1e-4 0,3e-4 1e-4,5e-4 0,3e-4 10e-5,8e-4 2e-4,0.0013 2e-4,9e-4 4e-4,0.0022 7e-4,0.0037 7e-4,0.003 0.0016,0.007 0.003,0.0118 0.0026,0.0095 0.0071,0.0223 0.0141,0.0365 0.0141,0.0283 0.0396,0.0638 0.0842,0.0874 l 0.0468,-0.0883 c -0.0211,-0.0112 -0.0338,-0.0282 -0.0414,-0.0436 -0.0038,-0.0077 -0.0062,-0.0146 -0.0075,-0.0193 -7e-4,-0.0024 -0.0011,-0.0041 -0.0013,-0.0051 -1e-4,-5e-4 -2e-4,-7e-4 -2e-4,-8e-4 0,0 0,0 1e-4,10e-5 0,10e-5 0,10e-5 0,2e-4 0,0 0,10e-5 0,10e-5 0,10e-5 0,10e-5 0,10e-5 0,0 0,0 0,0 0,10e-5 0,10e-5 -0.0494,0.0075 z m -0.05,-0.1445 v 0.1445 h 0.1 v -0.1445 z m 0.1197,-0.2441 c -0.0637,0.0629 -0.0944,0.1222 -0.1086,0.1681 -0.0071,0.0228 -0.0099,0.0419 -0.0109,0.056 -5e-4,0.0071 -6e-4,0.0129 -5e-4,0.0172 1e-4,0.0022 2e-4,0.0041 3e-4,0.0055 1e-4,8e-4 1e-4,0.0014 2e-4,0.0019 0,3e-4 0,6e-4 10e-5,8e-4 0,10e-5 0,2e-4 0,3e-4 0,10e-5 0,10e-5 0,2e-4 0,0 0,0 0,0 0,10e-5 0,10e-5 0.0497,-0.0059 0.0496,-0.006 0.0496,-0.0059 0.0496,-0.0059 0,0 0,10e-5 0,10e-5 0,0 0,10e-5 10e-5,10e-5 0,10e-5 0,10e-5 0,2e-4 0,10e-5 0,3e-4 0,3e-4 0,2e-4 0,3e-4 0,4e-4 0,0 0,-3e-4 0,-9e-4 0,-0.0012 0,-0.0036 2e-4,-0.0072 5e-4,-0.007 0.0021,-0.0186 0.0067,-0.0336 0.0092,-0.0296 0.031,-0.0747 0.0834,-0.1265 z m 0.4648,-0.1099 c -0.0049,-0.0498 -0.0049,-0.0498 -0.0049,-0.0498 0,0 0,0 0,0 0,0 -1e-4,0 -1e-4,0 -10e-5,0 -10e-5,10e-5 -2e-4,10e-5 -2e-4,0 -5e-4,0 -8e-4,0 -7e-4,10e-5 -0.0017,2e-4 -0.003,4e-4 -0.0025,2e-4 -0.0061,6e-4 -0.0107,0.0012 -0.0092,0.0011 -0.0224,0.0028 -0.0385,0.0052 -0.0322,0.0049 -0.0764,0.0125 -0.1246,0.0239 -0.048,0.0114 -0.1009,0.0268 -0.1499,0.0472 -0.0485,0.0201 -0.0965,0.0465 -0.1321,0.0817 l 0.0703,0.0711 c 0.0225,-0.0222 0.0572,-0.0426 0.1002,-0.0605 0.0424,-0.0176 0.0897,-0.0315 0.1346,-0.0421 0.0447,-0.0107 0.0861,-0.0178 0.1163,-0.0224 0.0151,-0.0022 0.0273,-0.0038 0.0357,-0.0048 0.0042,-5e-4 0.0074,-9e-4 0.0096,-0.0011 0.001,-10e-5 0.0018,-2e-4 0.0023,-3e-4 3e-4,0 5e-4,0 6e-4,0 0,0 10e-5,0 10e-5,-10e-5 0,0 0,0 0,0 0,0 0,0 0,0 z m 1.0348,-1.0714 c -0.0931,0.1751 -0.2181,0.4095 -0.3893,0.6117 -0.1712,0.202 -0.3847,0.3671 -0.6534,0.4103 l 0.0159,0.0988 c 0.3014,-0.0486 0.5345,-0.2328 0.7138,-0.4445 0.1792,-0.2115 0.3086,-0.4552 0.4013,-0.6293 z m 0.0392,-0.0731 c -0.0124,0.0228 -0.0255,0.0474 -0.0392,0.0731 l 0.0883,0.047 c 0.0138,-0.0258 0.0266,-0.05 0.0388,-0.0725 z m 0.7358,-1.7582 c -0.1661,0.4167 -0.3322,0.8233 -0.4659,1.1426 -0.1343,0.3209 -0.2346,0.5503 -0.2699,0.6156 l 0.0879,0.0476 c 0.0383,-0.0708 0.141,-0.3061 0.2743,-0.6246 0.1339,-0.3199 0.3002,-0.727 0.4665,-1.1441 z M 76.0217,9.28331 C 75.8981,9.58973 75.525,10.5227 75.1926,11.3565 l 0.0929,0.0371 c 0.3324,-0.8339 0.7054,-1.76668 0.8289,-2.07288 z m 1.4236,-3.55795 c -0.6044,1.51877 -1.0036,2.51653 -1.4236,3.55795 l 0.0927,0.03741 C 76.5345,8.2791 76.9338,7.28119 77.5382,5.76233 Z M 78.537,2.9901 c -0.2686,0.67053 -0.7599,1.90138 -1.0917,2.73526 l 0.0929,0.03697 C 77.87,4.92851 78.3613,3.69773 78.6298,3.02729 Z m 0.4883,-1.21909 -0.4883,1.21909 0.0928,0.03719 0.4883,-1.2191 z m 0.7016,-0.3761 -0.6782,0.35026 0.0459,0.08885 0.6781,-0.35026 z M 79.974,5.2653 C 79.883,5.0443 79.723,4.64771 79.6184,4.3842 l -0.0929,0.03688 c 0.1046,0.26384 0.2649,0.66083 0.356,0.88228 z m 0.5664,1.39259 C 80.3201,6.11334 80.0651,5.48667 79.974,5.26529 l -0.0925,0.03808 c 0.091,0.22107 0.3459,0.84748 0.5662,1.39204 z m 0.6017,1.47217 C 81.0315,7.8649 80.7608,7.20242 80.5404,6.65789 l -0.0927,0.03752 c 0.2204,0.54458 0.4913,1.20747 0.6021,1.47313 z m 0.205,0.52976 C 81.3471,8.6513 81.3448,8.64331 81.3443,8.6416 81.3433,8.63776 81.342,8.6334 81.3405,8.62889 81.3375,8.61975 81.3333,8.60782 81.3281,8.59368 81.3177,8.5653 81.3028,8.52643 81.2845,8.48002 81.2479,8.38712 81.1975,8.26302 81.1421,8.13006 l -0.0924,0.03847 c 0.0553,0.13252 0.1054,0.256 0.1417,0.34815 0.0182,0.04612 0.0328,0.08415 0.0428,0.11145 0.0051,0.01371 0.0088,0.02431 0.0112,0.03171 0.0012,0.00375 0.0019,0.00617 0.0023,0.0075 9e-4,0.00347 -6e-4,-9.2e-4 -6e-4,-0.00752 z M 79.4523,8.7378 c 0.5074,0 0.9689,-0.00315 1.3036,-0.00822 0.1673,-0.00254 0.3032,-0.00556 0.3974,-0.00892 0.047,-0.00168 0.0841,-0.00346 0.1098,-0.00535 0.0126,-9.3e-4 0.0235,-0.00196 0.0317,-0.00318 0.0038,-5.6e-4 0.009,-0.00144 0.0141,-0.00294 0.0021,-6.5e-4 0.0074,-0.00228 0.0131,-0.00566 0.0017,-0.00101 0.0251,-0.01416 0.0251,-0.04371 h -0.1 c 0,-0.02907 0.0229,-0.04174 0.0238,-0.04227 0.0049,-0.00291 0.0089,-0.00406 0.0095,-0.00423 0.0019,-5.5e-4 0.0023,-4.9e-4 -3e-4,-1.1e-4 -0.0044,6.6e-4 -0.0123,0.00148 -0.0244,0.00237 -0.0237,0.00175 -0.0593,0.00347 -0.106,0.00514 -0.0932,0.00333 -0.2282,0.00634 -0.3953,0.00887 -0.3341,0.00506 -0.795,0.00821 -1.3021,0.00821 z M 77.5575,8.62714 c 0,0.02129 0.012,0.035 0.0189,0.04105 0.007,0.00616 0.0144,0.00979 0.0192,0.01186 0.01,0.00432 0.0219,0.00734 0.0333,0.00968 0.0237,0.00485 0.057,0.00906 0.0985,0.01284 0.0834,0.00762 0.206,0.01404 0.364,0.01923 0.3164,0.01041 0.7783,0.016 1.3609,0.016 v -0.1 c -0.5822,0 -1.0428,-0.00559 -1.3576,-0.01594 C 77.9372,8.61668 77.8169,8.61033 77.7365,8.60298 77.6959,8.59929 77.6671,8.59547 77.649,8.59176 77.6446,8.59086 77.6412,8.59004 77.6387,8.58934 77.6361,8.58861 77.6351,8.58818 77.6352,8.58821 c 0,4e-5 7e-4,3.4e-4 0.0018,9.8e-4 0.0011,6.1e-4 0.0031,0.00187 0.0055,0.00399 0.0042,0.00372 0.015,0.01506 0.015,0.03396 z m 0.0898,-0.31133 c -0.0242,0.06513 -0.0462,0.13137 -0.0623,0.18584 -0.008,0.0272 -0.0147,0.0519 -0.0194,0.0723 -0.0044,0.01883 -0.0081,0.03847 -0.0081,0.05319 h 0.1 c 0,1.9e-4 0,-4.4e-4 1e-4,-0.00216 2e-4,-0.00164 5e-4,-0.00385 0.001,-0.00667 9e-4,-0.00568 0.0024,-0.01298 0.0044,-0.02188 0.0041,-0.01778 0.0102,-0.04041 0.0179,-0.06648 0.0154,-0.05207 0.0367,-0.11612 0.0601,-0.17932 z m 1.29,-3.69232 c -0.8361,2.40634 -1.2144,3.48888 -1.29,3.6923 l 0.0937,0.03485 c 0.0762,-0.20475 0.455,-1.28892 1.2908,-3.69433 z m 0.2703,-0.73722 c -0.0043,0.00728 -0.0094,0.01909 -0.0143,0.03072 -0.0054,0.01302 -0.0121,0.03009 -0.02,0.05056 -0.0159,0.04099 -0.0366,0.09659 -0.0607,0.1627 -0.0484,0.13227 -0.1107,0.30731 -0.1753,0.49324 l 0.0945,0.03282 C 79.0963,4.47076 79.1584,4.29624 79.2065,4.16457 79.2306,4.0987 79.251,4.04374 79.2666,4.00354 79.2743,3.98342 79.2807,3.96723 79.2857,3.95534 79.2912,3.94206 79.2936,3.9373 79.2936,3.93733 Z M 79.6184,4.3842 C 79.5238,4.1456 79.4563,3.99306 79.4038,3.91286 79.3904,3.89241 79.3768,3.87476 79.3626,3.8611 79.3488,3.84778 79.3311,3.8351 79.3095,3.8304 79.2855,3.82519 79.2631,3.83116 79.245,3.84367 79.2287,3.855 79.2167,3.87097 79.2076,3.88626 l 0.086,0.05108 c 0.0056,-0.00948 0.0087,-0.01173 0.0083,-0.01145 -0.0021,0.00146 -0.0076,0.00354 -0.0136,0.00224 -0.0037,-7.9e-4 -0.0021,-0.00176 0.005,0.00503 0.0067,0.00647 0.0157,0.01735 0.0269,0.03448 0.0459,0.0701 0.1097,0.21252 0.2053,0.45343 z"
     fill="#000000"
     mask="url(#path-1-outside-1)"
     id="path3"
     style="display:none" />
  <text
     xml:space="preserve"
     style="font-size:16px;letter-spacing:2.15px;fill:#ffffff"
     x="-0.67168462"
     y="12.120587"
     id="text3"><tspan
       sodipodi:role="line"
       id="tspan3"
       x="-0.67168462"
       y="12.120587"
       style="font-style:normal;font-variant:normal;font-weight:normal;font-stretch:normal;font-size:16px;font-family:'Arial Rounded MT Bold';-inkscape-font-specification:'Arial Rounded MT Bold, ';letter-spacing:2.15px;fill:#ffffff"
       dx="0">BlastSwap</tspan></text>
</svg>
